<svg xmlns="http://www.w3.org/2000/svg" version="1.1" xmlns:xlink="http://www.w3.org/1999/xlink" width="2000" height="131" viewBox="0 0 2000 131"><g transform="matrix(1,0,0,1,-1.2121212121212466,-1.977588243023142)"><svg viewBox="0 0 396 26" data-background-color="#000000" preserveAspectRatio="xMidYMid meet" height="131" width="2000" xmlns="http://www.w3.org/2000/svg" xmlns:xlink="http://www.w3.org/1999/xlink"><g id="tight-bounds" transform="matrix(1,0,0,1,0.2400000000000091,0.39249842991299033)"><svg viewBox="0 0 395.52 25.215003140173994" height="25.215003140173994" width="395.52"><g><svg viewBox="0 0 451.21493985198134 28.765640486602777" height="25.215003140173994" width="395.52"><g><rect width="1.7527255909213377" height="22.253801681987092" x="49.35392737383141" y="3.2559194023078426" fill="#141414" opacity="1" stroke-width="0" stroke="transparent" fill-opacity="1" class="rect-yte-0" data-fill-palette-color="secondary" rx="1%" id="yte-0" data-palette-color="#141414"></rect></g><g transform="matrix(1,0,0,1,55.69493985198138,3.311277117934676)"><svg viewBox="0 0 395.52 22.143086250733425" height="22.143086250733425" width="395.52"><g id="textblocktransform"><svg viewBox="0 0 395.52 22.143086250733425" height="22.143086250733425" width="395.52" id="textblock"><g><svg viewBox="0 0 395.52 22.143086250733425" height="22.143086250733425" width="395.52"><g transform="matrix(1,0,0,1,0,0)"><svg width="395.52" viewBox="-1 -42 1023.52 58.25" height="22.143086250733425" data-palette-color="#ffffff"><path d="M9.6 12.25L9.6 12.25Q8.05 12.25 6.18 12 4.3 11.75 3 11.4L3 11.4 3 7.45Q3.9 7.75 4.93 7.98 5.95 8.2 7.03 8.35 8.1 8.5 9.1 8.5L9.1 8.5Q11.35 8.5 12.73 7.78 14.1 7.05 14.73 5.58 15.35 4.1 15.35 1.85L15.35 1.85 15.35-23.05 6.6-23.7 6.6-26.8 19.85-26.8 19.85 2.6Q19.85 7.25 17.18 9.75 14.5 12.25 9.6 12.25ZM17.1-31.65L17.1-31.65Q15.8-31.65 14.9-32.45 14-33.25 14-34.85L14-34.85Q14-36.45 14.88-37.23 15.75-38 17.1-38L17.1-38Q18.4-38 19.33-37.23 20.25-36.45 20.25-34.85L20.25-34.85Q20.25-33.2 19.3-32.43 18.35-31.65 17.1-31.65ZM45.05 0.5L45.05 0.5Q42.45 0.5 40.2-0.35 37.95-1.2 36.27-2.95 34.6-4.7 33.67-7.33 32.75-9.95 32.75-13.5L32.75-13.5Q32.75-18.15 34.32-21.2 35.9-24.25 38.65-25.78 41.4-27.3 44.9-27.3L44.9-27.3Q48.4-27.3 51.2-25.78 54-24.25 55.62-21.18 57.25-18.1 57.25-13.35L57.25-13.35Q57.25-9.85 56.32-7.25 55.4-4.65 53.77-2.93 52.15-1.2 49.92-0.35 47.7 0.5 45.05 0.5ZM45-3.15L45-3.15Q47.6-3.15 49.3-4.4 51-5.65 51.85-7.98 52.7-10.3 52.7-13.45L52.7-13.45Q52.7-16.65 51.85-18.93 51-21.2 49.27-22.43 47.55-23.65 44.95-23.65L44.95-23.65Q41.05-23.65 39.12-20.93 37.2-18.2 37.2-13.45L37.2-13.45Q37.2-10.3 38.07-7.98 38.95-5.65 40.67-4.4 42.4-3.15 45-3.15ZM76.84 0.5L76.84 0.5Q72.55 0.5 69.45-1.1 66.34-2.7 64.67-5.78 63-8.85 63-13.3L63-13.3Q63-17.7 64.59-20.83 66.2-23.95 69.05-25.63 71.9-27.3 75.7-27.3L75.7-27.3Q79.2-27.3 81.72-25.75 84.25-24.2 85.62-21.38 87-18.55 87-14.6L87-14.6 87-12.55 67.55-12.55Q67.65-9.05 68.87-7 70.09-4.95 72.22-4.08 74.34-3.2 77.15-3.2L77.15-3.2Q79.34-3.2 81.5-3.8 83.65-4.4 85.8-5.4L85.8-5.4 85.8-1.4Q83.5-0.4 81.2 0.05 78.9 0.5 76.84 0.5ZM67.65-16.15L82.5-16.15Q82.4-18.5 81.59-20.18 80.8-21.85 79.32-22.75 77.84-23.65 75.7-23.65L75.7-23.65Q72.34-23.65 70.27-21.63 68.2-19.6 67.65-16.15L67.65-16.15ZM126.49 0L122.49 0 122.49-26.8 125.59-26.8 126.24-23.85 126.49-23.85Q127.14-25.2 127.89-25.95 128.64-26.7 129.52-27 130.39-27.3 131.44-27.3L131.44-27.3Q133.49-27.3 134.62-26.33 135.74-25.35 136.34-23.45L136.34-23.45 136.49-23.45Q137.34-25.3 138.62-26.3 139.89-27.3 141.99-27.3L141.99-27.3Q144.04-27.3 145.27-26.25 146.49-25.2 147.02-23.05 147.54-20.9 147.54-17.5L147.54-17.5 147.54 0 143.54 0 143.54-16.75Q143.54-18.85 143.37-20.33 143.19-21.8 142.64-22.6 142.09-23.4 140.84-23.4L140.84-23.4Q139.64-23.4 138.79-22.28 137.94-21.15 137.49-18.95 137.04-16.75 137.04-13.4L137.04-13.4 137.04 0 133.04 0 133.04-16.75Q133.04-18.9 132.79-20.38 132.54-21.85 131.92-22.63 131.29-23.4 130.04-23.4L130.04-23.4Q128.74-23.4 127.94-22.18 127.14-20.95 126.82-18.73 126.49-16.5 126.49-13.4L126.49-13.4 126.49 0ZM166.84 0.5L166.84 0.5Q162.54 0.5 159.44-1.1 156.34-2.7 154.66-5.78 152.99-8.85 152.99-13.3L152.99-13.3Q152.99-17.7 154.59-20.83 156.19-23.95 159.04-25.63 161.89-27.3 165.69-27.3L165.69-27.3Q169.19-27.3 171.71-25.75 174.24-24.2 175.61-21.38 176.99-18.55 176.99-14.6L176.99-14.6 176.99-12.55 157.54-12.55Q157.64-9.05 158.86-7 160.09-4.95 162.21-4.08 164.34-3.2 167.14-3.2L167.14-3.2Q169.34-3.2 171.49-3.8 173.64-4.4 175.79-5.4L175.79-5.4 175.79-1.4Q173.49-0.4 171.19 0.05 168.89 0.5 166.84 0.5ZM157.64-16.15L172.49-16.15Q172.39-18.5 171.59-20.18 170.79-21.85 169.31-22.75 167.84-23.65 165.69-23.65L165.69-23.65Q162.34-23.65 160.26-21.63 158.19-19.6 157.64-16.15L157.64-16.15ZM188.49 0L183.99 0 183.99-26.8 187.59-26.8 188.24-22.85 188.49-22.85Q189.29-24.4 190.56-25.38 191.84-26.35 193.54-26.83 195.24-27.3 197.24-27.3L197.24-27.3Q201.29-27.3 203.76-25.03 206.24-22.75 206.24-17.9L206.24-17.9 206.24 0 201.74 0 201.74-17.1Q201.74-20.5 200.36-22.08 198.99-23.65 195.94-23.65L195.94-23.65Q191.84-23.65 190.16-21.05 188.49-18.45 188.49-13.75L188.49-13.75 188.49 0ZM223.68 0.5L223.68 0.5Q221.23 0.5 219.21-0.35 217.18-1.2 215.73-2.95 214.28-4.7 213.51-7.35 212.73-10 212.73-13.55L212.73-13.55Q212.73-18 214.01-21.08 215.28-24.15 217.83-25.73 220.38-27.3 224.18-27.3L224.18-27.3Q226.03-27.3 227.46-26.8 228.88-26.3 229.91-25.43 230.93-24.55 231.53-23.4L231.53-23.4 231.83-23.4Q231.78-23.9 231.71-24.58 231.63-25.25 231.58-25.98 231.53-26.7 231.53-27.35L231.53-27.35 231.53-38 235.98-38 235.98 0 232.28 0 231.78-3.6 231.58-3.6Q230.83-2.4 229.76-1.48 228.68-0.55 227.21-0.03 225.73 0.5 223.68 0.5ZM224.53-3.15L224.53-3.15Q228.08-3.15 229.81-5.63 231.53-8.1 231.53-12.35L231.53-12.35 231.53-13.35Q231.53-16.3 230.88-18.63 230.23-20.95 228.73-22.3 227.23-23.65 224.68-23.65L224.68-23.65Q221.18-23.65 219.26-21.05 217.33-18.45 217.33-13.1L217.33-13.1Q217.33-8.15 219.11-5.65 220.88-3.15 224.53-3.15ZM256.83 0.5L256.83 0.5Q252.53 0.5 249.43-1.1 246.33-2.7 244.66-5.78 242.98-8.85 242.98-13.3L242.98-13.3Q242.98-17.7 244.58-20.83 246.18-23.95 249.03-25.63 251.88-27.3 255.68-27.3L255.68-27.3Q259.18-27.3 261.71-25.75 264.23-24.2 265.61-21.38 266.98-18.55 266.98-14.6L266.98-14.6 266.98-12.55 247.53-12.55Q247.63-9.05 248.86-7 250.08-4.95 252.21-4.08 254.33-3.2 257.13-3.2L257.13-3.2Q259.33-3.2 261.48-3.8 263.63-4.4 265.78-5.4L265.78-5.4 265.78-1.4Q263.48-0.4 261.18 0.05 258.88 0.5 256.83 0.5ZM247.63-16.15L262.48-16.15Q262.38-18.5 261.58-20.18 260.78-21.85 259.31-22.75 257.83-23.65 255.68-23.65L255.68-23.65Q252.33-23.65 250.26-21.63 248.18-19.6 247.63-16.15L247.63-16.15ZM295.48 0L274.48 0 274.48-3.05 290.23-23.35 275.28-23.35 275.28-26.8 295.08-26.8 295.08-23.25 279.83-3.8 295.48-3.8 295.48 0ZM315.03-20.5L315.03-20.5Q313.73-20.5 312.83-21.3 311.93-22.1 311.93-23.9L311.93-23.9Q311.93-25.8 312.83-26.55 313.73-27.3 315.03-27.3L315.03-27.3Q316.33-27.3 317.2-26.55 318.08-25.8 318.08-23.9L318.08-23.9Q318.08-22.1 317.2-21.3 316.33-20.5 315.03-20.5ZM314.98 0.5L314.98 0.5Q313.68 0.5 312.78-0.3 311.88-1.1 311.88-2.9L311.88-2.9Q311.88-4.8 312.78-5.55 313.68-6.3 314.98-6.3L314.98-6.3Q316.28-6.3 317.15-5.55 318.03-4.8 318.03-2.9L318.03-2.9Q318.03-1.1 317.15-0.3 316.28 0.5 314.98 0.5ZM373.92 0.5L373.92 0.5Q371.42 0.5 369.15 0.05 366.87-0.4 365.22-1.2L365.22-1.2 365.22-5.35Q366.97-4.55 369.1-3.88 371.22-3.2 374.17-3.2L374.17-3.2Q377.47-3.2 378.85-4.23 380.22-5.25 380.22-7.2L380.22-7.2Q380.22-8.25 379.75-8.93 379.27-9.6 377.92-10.3 376.57-11 373.97-12.1L373.97-12.1Q371.37-13.25 369.52-14.25 367.67-15.25 366.67-16.63 365.67-18 365.67-20.15L365.67-20.15Q365.67-22.55 366.9-24.13 368.12-25.7 370.45-26.5 372.77-27.3 375.97-27.3L375.97-27.3Q378.17-27.3 380.17-26.9 382.17-26.5 384.32-25.6L384.32-25.6 382.97-22.1Q380.97-22.95 379.3-23.25 377.62-23.55 375.97-23.55L375.97-23.55Q372.87-23.55 371.45-22.75 370.02-21.95 370.02-20.25L370.02-20.25Q370.02-19.15 370.65-18.4 371.27-17.65 372.7-16.95 374.12-16.25 376.47-15.25L376.47-15.25Q379.12-14.15 380.97-13.2 382.82-12.25 383.77-10.93 384.72-9.6 384.72-7.3L384.72-7.3Q384.72-4.75 383.5-3.03 382.27-1.3 379.87-0.4 377.47 0.5 373.92 0.5ZM406.82 0.5L406.82 0.5Q402.52 0.5 399.42-1.1 396.32-2.7 394.64-5.78 392.97-8.85 392.97-13.3L392.97-13.3Q392.97-17.7 394.57-20.83 396.17-23.95 399.02-25.63 401.87-27.3 405.67-27.3L405.67-27.3Q409.17-27.3 411.69-25.75 414.22-24.2 415.59-21.38 416.97-18.55 416.97-14.6L416.97-14.6 416.97-12.55 397.52-12.55Q397.62-9.05 398.84-7 400.07-4.95 402.19-4.08 404.32-3.2 407.12-3.2L407.12-3.2Q409.32-3.2 411.47-3.8 413.62-4.4 415.77-5.4L415.77-5.4 415.77-1.4Q413.47-0.4 411.17 0.05 408.87 0.5 406.82 0.5ZM397.62-16.15L412.47-16.15Q412.37-18.5 411.57-20.18 410.77-21.85 409.29-22.75 407.82-23.65 405.67-23.65L405.67-23.65Q402.32-23.65 400.24-21.63 398.17-19.6 397.62-16.15L397.62-16.15ZM428.47 0L423.97 0 423.97-26.8 427.57-26.8 428.22-22.85 428.47-22.85Q429.27-24.4 430.54-25.38 431.82-26.35 433.52-26.83 435.22-27.3 437.22-27.3L437.22-27.3Q441.27-27.3 443.74-25.03 446.22-22.75 446.22-17.9L446.22-17.9 446.22 0 441.72 0 441.72-17.1Q441.72-20.5 440.34-22.08 438.97-23.65 435.92-23.65L435.92-23.65Q431.82-23.65 430.14-21.05 428.47-18.45 428.47-13.75L428.47-13.75 428.47 0ZM476.96 0L453.96 0 453.96-3 463.51-3.75 463.51-23.05 454.76-23.7 454.76-26.8 468.01-26.8 468.01-3.75 476.96-3 476.96 0ZM465.31-31.65L465.31-31.65Q464.01-31.65 463.09-32.45 462.16-33.25 462.16-34.8L462.16-34.8Q462.16-36.45 463.09-37.23 464.01-38 465.31-38L465.31-38Q466.61-38 467.54-37.23 468.46-36.45 468.46-34.8L468.46-34.8Q468.46-33.25 467.54-32.45 466.61-31.65 465.31-31.65ZM495.01 0.5L495.01 0.5Q492.41 0.5 490.16-0.35 487.91-1.2 486.24-2.95 484.56-4.7 483.64-7.33 482.71-9.95 482.71-13.5L482.71-13.5Q482.71-18.15 484.29-21.2 485.86-24.25 488.61-25.78 491.36-27.3 494.86-27.3L494.86-27.3Q498.36-27.3 501.16-25.78 503.96-24.25 505.59-21.18 507.21-18.1 507.21-13.35L507.21-13.35Q507.21-9.85 506.29-7.25 505.36-4.65 503.74-2.93 502.11-1.2 499.89-0.35 497.66 0.5 495.01 0.5ZM494.96-3.15L494.96-3.15Q497.56-3.15 499.26-4.4 500.96-5.65 501.81-7.98 502.66-10.3 502.66-13.45L502.66-13.45Q502.66-16.65 501.81-18.93 500.96-21.2 499.24-22.43 497.51-23.65 494.91-23.65L494.91-23.65Q491.01-23.65 489.09-20.93 487.16-18.2 487.16-13.45L487.16-13.45Q487.16-10.3 488.04-7.98 488.91-5.65 490.64-4.4 492.36-3.15 494.96-3.15ZM533.56 0L513.06 0 513.06-3 521.21-3.75 521.21-23.05 513.86-23.7 513.86-26.8 524.81-26.8 525.41-21.9 525.61-21.9Q527.01-24.55 528.68-25.93 530.36-27.3 533.11-27.3L533.11-27.3Q534.81-27.3 536.13-27 537.46-26.7 538.56-26.2L538.56-26.2 537.36-22.25Q536.56-22.7 535.46-23.03 534.36-23.35 533.11-23.35L533.11-23.35Q530.96-23.35 529.31-22 527.66-20.65 526.71-18.4 525.76-16.15 525.76-13.45L525.76-13.45 525.76-3.75 533.56-3 533.56 0ZM583.65 0.5L583.65 0.5Q581.2 0.5 579.18-0.35 577.15-1.2 575.7-2.95 574.25-4.7 573.48-7.35 572.7-10 572.7-13.55L572.7-13.55Q572.7-18 573.98-21.08 575.25-24.15 577.8-25.73 580.35-27.3 584.15-27.3L584.15-27.3Q586-27.3 587.43-26.8 588.85-26.3 589.88-25.43 590.9-24.55 591.5-23.4L591.5-23.4 591.8-23.4Q591.75-23.9 591.68-24.58 591.6-25.25 591.55-25.98 591.5-26.7 591.5-27.35L591.5-27.35 591.5-38 595.95-38 595.95 0 592.25 0 591.75-3.6 591.55-3.6Q590.8-2.4 589.73-1.48 588.65-0.55 587.18-0.03 585.7 0.5 583.65 0.5ZM584.5-3.15L584.5-3.15Q588.05-3.15 589.78-5.63 591.5-8.1 591.5-12.35L591.5-12.35 591.5-13.35Q591.5-16.3 590.85-18.63 590.2-20.95 588.7-22.3 587.2-23.65 584.65-23.65L584.65-23.65Q581.15-23.65 579.23-21.05 577.3-18.45 577.3-13.1L577.3-13.1Q577.3-8.15 579.08-5.65 580.85-3.15 584.5-3.15ZM616.8 0.5L616.8 0.5Q612.5 0.5 609.4-1.1 606.3-2.7 604.62-5.78 602.95-8.85 602.95-13.3L602.95-13.3Q602.95-17.7 604.55-20.83 606.15-23.95 609-25.63 611.85-27.3 615.65-27.3L615.65-27.3Q619.15-27.3 621.67-25.75 624.2-24.2 625.57-21.38 626.95-18.55 626.95-14.6L626.95-14.6 626.95-12.55 607.5-12.55Q607.6-9.05 608.82-7 610.05-4.95 612.17-4.08 614.3-3.2 617.1-3.2L617.1-3.2Q619.3-3.2 621.45-3.8 623.6-4.4 625.75-5.4L625.75-5.4 625.75-1.4Q623.45-0.4 621.15 0.05 618.85 0.5 616.8 0.5ZM607.6-16.15L622.45-16.15Q622.35-18.5 621.55-20.18 620.75-21.85 619.27-22.75 617.8-23.65 615.65-23.65L615.65-23.65Q612.3-23.65 610.22-21.63 608.15-19.6 607.6-16.15L607.6-16.15ZM647.65 0L642.1 0 632.2-26.8 636.8-26.8 642.4-10.9Q642.95-9.3 643.57-7.55 644.2-5.8 644.85-3.8L644.85-3.8 645-3.8Q645.65-5.8 646.32-7.58 647-9.35 647.5-10.9L647.5-10.9 652.95-26.8 657.65-26.8 647.65 0ZM674.99 0.5L674.99 0.5Q672.39 0.5 670.14-0.35 667.89-1.2 666.22-2.95 664.54-4.7 663.62-7.33 662.69-9.95 662.69-13.5L662.69-13.5Q662.69-18.15 664.27-21.2 665.84-24.25 668.59-25.78 671.34-27.3 674.84-27.3L674.84-27.3Q678.34-27.3 681.14-25.78 683.94-24.25 685.57-21.18 687.19-18.1 687.19-13.35L687.19-13.35Q687.19-9.85 686.27-7.25 685.34-4.65 683.72-2.93 682.09-1.2 679.87-0.35 677.64 0.5 674.99 0.5ZM674.94-3.15L674.94-3.15Q677.54-3.15 679.24-4.4 680.94-5.65 681.79-7.98 682.64-10.3 682.64-13.45L682.64-13.45Q682.64-16.65 681.79-18.93 680.94-21.2 679.22-22.43 677.49-23.65 674.89-23.65L674.89-23.65Q670.99-23.65 669.07-20.93 667.14-18.2 667.14-13.45L667.14-13.45Q667.14-10.3 668.02-7.98 668.89-5.65 670.62-4.4 672.34-3.15 674.94-3.15ZM698.39 12L693.94 12 693.94-26.8 697.64-26.8 698.19-23.15 698.39-23.15Q699.19-24.45 700.29-25.38 701.39-26.3 702.89-26.8 704.39-27.3 706.39-27.3L706.39-27.3Q708.84-27.3 710.84-26.43 712.84-25.55 714.27-23.8 715.69-22.05 716.44-19.45 717.19-16.85 717.19-13.45L717.19-13.45Q717.19-8.9 715.87-5.78 714.54-2.65 712.12-1.07 709.69 0.5 706.39 0.5L706.39 0.5Q704.44 0.5 702.92-0.05 701.39-0.6 700.29-1.5 699.19-2.4 698.39-3.45L698.39-3.45 698.09-3.45Q698.24-2.5 698.32-1.48 698.39-0.45 698.39 0.55L698.39 0.55 698.39 12ZM705.44-3.15L705.44-3.15Q709.19-3.15 710.89-5.73 712.59-8.3 712.59-13.55L712.59-13.55Q712.59-18.7 710.92-21.18 709.24-23.65 705.39-23.65L705.39-23.65Q701.74-23.65 700.07-21.28 698.39-18.9 698.39-14.45L698.39-14.45 698.39-13.45Q698.39-8.7 699.92-5.93 701.44-3.15 705.44-3.15ZM733.89 0.5L733.89 0.5Q731.39 0.5 729.11 0.05 726.84-0.4 725.19-1.2L725.19-1.2 725.19-5.35Q726.94-4.55 729.06-3.88 731.19-3.2 734.14-3.2L734.14-3.2Q737.44-3.2 738.81-4.23 740.19-5.25 740.19-7.2L740.19-7.2Q740.19-8.25 739.71-8.93 739.24-9.6 737.89-10.3 736.54-11 733.94-12.1L733.94-12.1Q731.34-13.25 729.49-14.25 727.64-15.25 726.64-16.63 725.64-18 725.64-20.15L725.64-20.15Q725.64-22.55 726.86-24.13 728.09-25.7 730.41-26.5 732.74-27.3 735.94-27.3L735.94-27.3Q738.14-27.3 740.14-26.9 742.14-26.5 744.29-25.6L744.29-25.6 742.94-22.1Q740.94-22.95 739.26-23.25 737.59-23.55 735.94-23.55L735.94-23.55Q732.84-23.55 731.41-22.75 729.99-21.95 729.99-20.25L729.99-20.25Q729.99-19.15 730.61-18.4 731.24-17.65 732.66-16.95 734.09-16.25 736.44-15.25L736.44-15.25Q739.09-14.15 740.94-13.2 742.79-12.25 743.74-10.93 744.69-9.6 744.69-7.3L744.69-7.3Q744.69-4.75 743.46-3.03 742.24-1.3 739.84-0.4 737.44 0.5 733.89 0.5ZM796.78 0.5L796.78 0.5Q792.48 0.5 789.38-1.1 786.28-2.7 784.61-5.78 782.93-8.85 782.93-13.3L782.93-13.3Q782.93-17.7 784.53-20.83 786.13-23.95 788.98-25.63 791.83-27.3 795.63-27.3L795.63-27.3Q799.13-27.3 801.66-25.75 804.18-24.2 805.56-21.38 806.93-18.55 806.93-14.6L806.93-14.6 806.93-12.55 787.48-12.55Q787.58-9.05 788.81-7 790.03-4.95 792.16-4.08 794.28-3.2 797.08-3.2L797.08-3.2Q799.28-3.2 801.43-3.8 803.58-4.4 805.73-5.4L805.73-5.4 805.73-1.4Q803.43-0.4 801.13 0.05 798.83 0.5 796.78 0.5ZM787.58-16.15L802.43-16.15Q802.33-18.5 801.53-20.18 800.73-21.85 799.26-22.75 797.78-23.65 795.63-23.65L795.63-23.65Q792.28-23.65 790.21-21.63 788.13-19.6 787.58-16.15L787.58-16.15ZM818.43 0L813.93 0 813.93-26.8 817.53-26.8 818.18-22.85 818.43-22.85Q819.23-24.4 820.51-25.38 821.78-26.35 823.48-26.83 825.18-27.3 827.18-27.3L827.18-27.3Q831.23-27.3 833.71-25.03 836.18-22.75 836.18-17.9L836.18-17.9 836.18 0 831.68 0 831.68-17.1Q831.68-20.5 830.31-22.08 828.93-23.65 825.88-23.65L825.88-23.65Q821.78-23.65 820.11-21.05 818.43-18.45 818.43-13.75L818.43-13.75 818.43 0ZM853.73 12.25L853.73 12.25Q850.98 12.25 848.55 11.73 846.13 11.2 844.08 10.35L844.08 10.35 844.08 6.35Q846.08 7.5 848.7 8.08 851.33 8.65 853.58 8.65L853.58 8.65Q858.13 8.65 859.93 6.53 861.73 4.4 861.73 0.7L861.73 0.7 861.73-0.25Q861.73-0.85 861.75-1.4 861.78-1.95 861.88-3.1L861.88-3.1 861.68-3.1Q860.28-1.05 858.4-0.28 856.53 0.5 853.88 0.5L853.88 0.5Q848.58 0.5 845.63-3.13 842.68-6.75 842.68-13.25L842.68-13.25Q842.68-19.8 845.6-23.55 848.53-27.3 853.63-27.3L853.63-27.3Q856.33-27.3 858.18-26.43 860.03-25.55 861.48-23.5L861.48-23.5 861.73-23.5 862.33-26.8 865.93-26.8 865.93 0.7Q865.93 4.5 864.63 7.08 863.33 9.65 860.63 10.95 857.93 12.25 853.73 12.25ZM854.73-3.15L854.73-3.15Q856.38-3.15 857.7-3.68 859.03-4.2 859.95-5.33 860.88-6.45 861.38-8.18 861.88-9.9 861.88-12.3L861.88-12.3 861.88-13.35Q861.88-17 861-19.28 860.13-21.55 858.48-22.6 856.83-23.65 854.58-23.65L854.58-23.65Q850.78-23.65 849.03-20.98 847.28-18.3 847.28-13.4L847.28-13.4Q847.28-8.4 849.1-5.78 850.93-3.15 854.73-3.15ZM896.93 0L873.93 0 873.93-3 883.48-3.75 883.48-23.05 874.73-23.7 874.73-26.8 887.98-26.8 887.98-3.75 896.93-3 896.93 0ZM885.28-31.65L885.28-31.65Q883.98-31.65 883.05-32.45 882.13-33.25 882.13-34.8L882.13-34.8Q882.13-36.45 883.05-37.23 883.98-38 885.28-38L885.28-38Q886.58-38 887.5-37.23 888.43-36.45 888.43-34.8L888.43-34.8Q888.43-33.25 887.5-32.45 886.58-31.65 885.28-31.65ZM908.42 0L903.92 0 903.92-26.8 907.52-26.8 908.17-22.85 908.42-22.85Q909.22-24.4 910.5-25.38 911.77-26.35 913.47-26.83 915.17-27.3 917.17-27.3L917.17-27.3Q921.22-27.3 923.7-25.03 926.17-22.75 926.17-17.9L926.17-17.9 926.17 0 921.67 0 921.67-17.1Q921.67-20.5 920.3-22.08 918.92-23.65 915.87-23.65L915.87-23.65Q911.77-23.65 910.1-21.05 908.42-18.45 908.42-13.75L908.42-13.75 908.42 0ZM946.77 0.5L946.77 0.5Q942.47 0.5 939.37-1.1 936.27-2.7 934.6-5.78 932.92-8.85 932.92-13.3L932.92-13.3Q932.92-17.7 934.52-20.83 936.12-23.95 938.97-25.63 941.82-27.3 945.62-27.3L945.62-27.3Q949.12-27.3 951.65-25.75 954.17-24.2 955.55-21.38 956.92-18.55 956.92-14.6L956.92-14.6 956.92-12.55 937.47-12.55Q937.57-9.05 938.8-7 940.02-4.95 942.15-4.08 944.27-3.2 947.07-3.2L947.07-3.2Q949.27-3.2 951.42-3.8 953.57-4.4 955.72-5.4L955.72-5.4 955.72-1.4Q953.42-0.4 951.12 0.05 948.82 0.5 946.77 0.5ZM937.57-16.15L952.42-16.15Q952.32-18.5 951.52-20.18 950.72-21.85 949.25-22.75 947.77-23.65 945.62-23.65L945.62-23.65Q942.27-23.65 940.2-21.63 938.12-19.6 937.57-16.15L937.57-16.15ZM976.77 0.5L976.77 0.5Q972.47 0.5 969.37-1.1 966.27-2.7 964.59-5.78 962.92-8.85 962.92-13.3L962.92-13.3Q962.92-17.7 964.52-20.83 966.12-23.95 968.97-25.63 971.82-27.3 975.62-27.3L975.62-27.3Q979.12-27.3 981.64-25.75 984.17-24.2 985.54-21.38 986.92-18.55 986.92-14.6L986.92-14.6 986.92-12.55 967.47-12.55Q967.57-9.05 968.79-7 970.02-4.95 972.14-4.08 974.27-3.2 977.07-3.2L977.07-3.2Q979.27-3.2 981.42-3.8 983.57-4.4 985.72-5.4L985.72-5.4 985.72-1.4Q983.42-0.4 981.12 0.05 978.82 0.5 976.77 0.5ZM967.57-16.15L982.42-16.15Q982.32-18.5 981.52-20.18 980.72-21.85 979.24-22.75 977.77-23.65 975.62-23.65L975.62-23.65Q972.27-23.65 970.19-21.63 968.12-19.6 967.57-16.15L967.57-16.15ZM1013.52 0L993.02 0 993.02-3 1001.17-3.75 1001.17-23.05 993.82-23.7 993.82-26.8 1004.77-26.8 1005.37-21.9 1005.57-21.9Q1006.97-24.55 1008.64-25.93 1010.32-27.3 1013.07-27.3L1013.07-27.3Q1014.77-27.3 1016.09-27 1017.42-26.7 1018.52-26.2L1018.52-26.2 1017.32-22.25Q1016.52-22.7 1015.42-23.03 1014.32-23.35 1013.07-23.35L1013.07-23.35Q1010.92-23.35 1009.27-22 1007.62-20.65 1006.67-18.4 1005.72-16.15 1005.72-13.45L1005.72-13.45 1005.72-3.75 1013.52-3 1013.52 0Z" opacity="1" transform="matrix(1,0,0,1,0,0)" fill="#ffffff" class="wordmark-text-0" data-fill-palette-color="primary" id="text-0"></path></svg></g></svg></g></svg></g></svg></g><g><svg viewBox="0 0 44.76564048660278 28.765640486602777" height="28.765640486602777" width="44.76564048660278"><g><svg xmlns="http://www.w3.org/2000/svg" viewBox="1 1 30 30" x="8" y="0" height="28.765640486602777" width="28.765640486602777" class="icon-icon-0" data-fill-palette-color="accent" id="icon-0"><g data-name="Layer 2" fill="#01cc65" data-fill-palette-color="accent"><rect x="22" y="20.37" width="2" height="6" fill="#01cc65" data-fill-palette-color="accent"></rect><path d="M27 1H1V14H3V3H25V15H15V29H3V22.7H1V31H31V15H27ZM29 17V29H17V17z" fill="#01cc65" data-fill-palette-color="accent"></path></g></svg></g></svg></g></svg></g><defs></defs></svg><rect width="395.52" height="25.215003140173994" fill="none" stroke="none" visibility="hidden"></rect></g></svg></g></svg>