<svg xmlns="http://www.w3.org/2000/svg" version="1.1" xmlns:xlink="http://www.w3.org/1999/xlink" xmlns:svgjs="http://svgjs.dev/svgjs" width="2000" height="1252" viewBox="0 0 2000 1252"><g transform="matrix(1,0,0,1,-1.2121212121212466,-2.01935483870966)"><svg viewBox="0 0 396 248" data-background-color="#121212" preserveAspectRatio="xMidYMid meet" height="1252" width="2000" xmlns="http://www.w3.org/2000/svg" xmlns:xlink="http://www.w3.org/1999/xlink"><g id="tight-bounds" transform="matrix(1,0,0,1,0.2400000000000091,0.4000000000000057)"><svg viewBox="0 0 395.52 247.2" height="247.2" width="395.52"><g><svg></svg></g><g><svg viewBox="0 0 395.52 247.2" height="247.2" width="395.52"><g transform="matrix(1,0,0,1,75.54432,110.78949139482984)"><svg viewBox="0 0 244.43135999999998 25.621017210340305" height="25.621017210340305" width="244.43135999999998"><g><svg viewBox="0 0 275.36085705067245 28.863011921012657" height="25.621017210340305" width="244.43135999999998"><g transform="matrix(1,0,0,1,30.929497050672442,9.210266466835442)"><svg viewBox="0 0 244.43135999999998 10.44247898734177" height="10.44247898734177" width="244.43135999999998"><g id="textblocktransform"><svg viewBox="0 0 244.43135999999998 10.44247898734177" height="10.44247898734177" width="244.43135999999998" id="textblock"><g><svg viewBox="0 0 244.43135999999998 10.44247898734177" height="10.44247898734177" width="244.43135999999998"><g transform="matrix(1,0,0,1,0,0)"><svg width="244.43135999999998" viewBox="-1.77 -39.77 1012.11 44.2" height="10.44247898734177" data-palette-color="#ffffff"><path d="M17.45-35.38L17.45-11.8Q17.45-8.83 16.71-6.55 15.98-4.28 14.61-2.73 13.25-1.18 11.29-0.39 9.33 0.4 6.88 0.4L6.88 0.4Q5.75 0.4 4.6 0.23 3.45 0.05 2.23-0.33L2.23-0.33Q2.27-0.68 2.31-1.03 2.35-1.38 2.38-1.73L2.38-1.73Q2.43-1.95 2.56-2.13 2.7-2.3 3.05-2.3L3.05-2.3Q3.28-2.3 3.59-2.21 3.9-2.13 4.34-2.02 4.78-1.93 5.34-1.84 5.9-1.75 6.65-1.75L6.65-1.75Q8.55-1.75 10.08-2.35 11.6-2.95 12.68-4.19 13.75-5.43 14.31-7.31 14.88-9.2 14.88-11.75L14.88-11.75 14.88-35.38 17.45-35.38ZM59.5-17.7L59.5-17.7Q59.5-13.6 58.27-10.26 57.05-6.93 54.82-4.56 52.6-2.2 49.5-0.91 46.4 0.38 42.62 0.38L42.62 0.38Q38.9 0.38 35.8-0.91 32.7-2.2 30.47-4.56 28.25-6.93 27.01-10.26 25.77-13.6 25.77-17.7L25.77-17.7Q25.77-21.78 27.01-25.11 28.25-28.45 30.47-30.81 32.7-33.18 35.8-34.48 38.9-35.77 42.62-35.77L42.62-35.77Q46.4-35.77 49.5-34.49 52.6-33.2 54.82-30.83 57.05-28.45 58.27-25.11 59.5-21.78 59.5-17.7ZM56.85-17.7L56.85-17.7Q56.85-21.4 55.82-24.35 54.8-27.3 52.94-29.35 51.07-31.4 48.45-32.49 45.82-33.58 42.62-33.58L42.62-33.58Q39.47-33.58 36.86-32.49 34.25-31.4 32.36-29.35 30.47-27.3 29.44-24.35 28.4-21.4 28.4-17.7L28.4-17.7Q28.4-13.98 29.44-11.04 30.47-8.1 32.36-6.05 34.25-4 36.86-2.93 39.47-1.85 42.62-1.85L42.62-1.85Q45.82-1.85 48.45-2.93 51.07-4 52.94-6.05 54.8-8.1 55.82-11.04 56.85-13.98 56.85-17.7ZM67.82-35.38L89.02-35.38 89.02-33.25 70.4-33.25 70.4-18.95 85.9-18.95 85.9-16.88 70.4-16.88 70.4-2.13 89.02-2.13 89.02 0 67.82 0 67.82-35.38ZM124.02-10.3L124.02-10.3Q124.39-9.6 124.67-8.8L124.67-8.8Q124.82-9.2 124.98-9.59 125.14-9.98 125.34-10.33L125.34-10.33 139.24-34.9Q139.44-35.23 139.64-35.3 139.84-35.38 140.19-35.38L140.19-35.38 141.97-35.38 141.97 0 139.72 0 139.72-30.15Q139.72-30.8 139.79-31.53L139.79-31.53 125.87-6.8Q125.52-6.15 124.87-6.15L124.87-6.15 124.47-6.15Q123.84-6.15 123.47-6.8L123.47-6.8 109.17-31.55Q109.24-30.83 109.24-30.15L109.24-30.15 109.24 0 107.02 0 107.02-35.38 108.77-35.38Q109.12-35.38 109.33-35.3 109.54-35.23 109.74-34.9L109.74-34.9 124.02-10.3ZM152.46-35.38L173.66-35.38 173.66-33.25 155.04-33.25 155.04-18.95 170.54-18.95 170.54-16.88 155.04-16.88 155.04-2.13 173.66-2.13 173.66 0 152.46 0 152.46-35.38ZM183.26-35.38L183.26-35.38Q183.61-35.38 183.81-35.29 184.01-35.2 184.24-34.9L184.24-34.9 207.14-4.25Q207.06-5 207.06-5.7L207.06-5.7 207.06-35.38 209.31-35.38 209.31 0 208.09 0Q207.51 0 207.16-0.5L207.16-0.5 184.16-31.2Q184.24-30.45 184.24-29.78L184.24-29.78 184.24 0 182.01 0 182.01-35.38 183.26-35.38ZM249.58-17.7L249.58-17.7Q249.58-13.6 248.36-10.33 247.13-7.05 244.91-4.75 242.68-2.45 239.58-1.23 236.48 0 232.71 0L232.71 0 219.81 0 219.81-35.38 232.71-35.38Q236.48-35.38 239.58-34.15 242.68-32.93 244.91-30.63 247.13-28.33 248.36-25.05 249.58-21.78 249.58-17.7ZM246.93-17.7L246.93-17.7Q246.93-21.4 245.91-24.3 244.88-27.2 243.02-29.2 241.16-31.2 238.53-32.25 235.91-33.3 232.71-33.3L232.71-33.3 222.38-33.3 222.38-2.08 232.71-2.08Q235.91-2.08 238.53-3.13 241.16-4.17 243.02-6.18 244.88-8.18 245.91-11.08 246.93-13.98 246.93-17.7ZM257.81-35.38L279.01-35.38 279.01-33.25 260.38-33.25 260.38-18.95 275.88-18.95 275.88-16.88 260.38-16.88 260.38-2.13 279.01-2.13 279.01 0 257.81 0 257.81-35.38ZM285.63-35.38L311.18-35.38 311.18-34.5Q311.18-33.98 310.83-33.48L310.83-33.48 288.38-2.13 310.98-2.13 310.98 0 284.98 0 284.98-0.93Q284.98-1.4 285.28-1.83L285.28-1.83 307.78-33.25 285.63-33.25 285.63-35.38ZM314.38-13.83L314.38-15.85 326-15.85 326-13.83 314.38-13.83ZM361.05-35.38L361.05 0 358.47 0 358.47-16.95 336.32-16.95 336.32 0 333.75 0 333.75-35.38 336.32-35.38 336.32-18.88 358.47-18.88 358.47-35.38 361.05-35.38ZM384.62-1.83L384.62-1.83Q387.17-1.83 389.18-2.71 391.2-3.6 392.6-5.18 394-6.75 394.73-8.89 395.47-11.03 395.47-13.5L395.47-13.5 395.47-35.38 398.02-35.38 398.02-13.5Q398.02-10.58 397.1-8.04 396.17-5.5 394.43-3.61 392.7-1.73 390.21-0.65 387.72 0.43 384.62 0.43L384.62 0.43Q381.52 0.43 379.03-0.65 376.55-1.73 374.81-3.61 373.07-5.5 372.15-8.04 371.22-10.58 371.22-13.5L371.22-13.5 371.22-35.38 373.8-35.38 373.8-13.53Q373.8-11.05 374.53-8.91 375.27-6.78 376.66-5.2 378.05-3.63 380.06-2.73 382.07-1.83 384.62-1.83ZM423.42-1.68L423.42-1.68Q425.24-1.68 426.74-1.86 428.24-2.05 429.53-2.43 430.82-2.8 431.98-3.34 433.14-3.88 434.32-4.55L434.32-4.55 434.32-14.08 427.52-14.08Q427.24-14.08 427.06-14.25 426.87-14.43 426.87-14.65L426.87-14.65 426.87-16.05 436.64-16.05 436.64-3.48Q435.32-2.55 433.89-1.83 432.47-1.1 430.84-0.61 429.22-0.13 427.34 0.14 425.47 0.4 423.24 0.4L423.24 0.4Q419.42 0.4 416.26-0.89 413.09-2.18 410.83-4.54 408.57-6.9 407.32-10.25 406.07-13.6 406.07-17.7L406.07-17.7Q406.07-21.8 407.32-25.14 408.57-28.48 410.87-30.84 413.17-33.2 416.46-34.49 419.74-35.77 423.82-35.77L423.82-35.77Q425.84-35.77 427.56-35.5 429.27-35.23 430.74-34.69 432.22-34.15 433.49-33.36 434.77-32.58 435.94-31.55L435.94-31.55 435.27-30.45Q435.04-30.08 434.64-30.08L434.64-30.08Q434.42-30.08 434.22-30.18L434.22-30.18Q433.84-30.33 433.13-30.88 432.42-31.43 431.21-32.02 429.99-32.63 428.17-33.1 426.34-33.58 423.74-33.58L423.74-33.58Q420.29-33.58 417.52-32.48 414.74-31.38 412.78-29.33 410.82-27.28 409.76-24.33 408.69-21.38 408.69-17.7L408.69-17.7Q408.69-13.95 409.77-10.98 410.84-8 412.78-5.94 414.72-3.88 417.43-2.78 420.14-1.68 423.42-1.68ZM472.94-35.38L472.94 0 470.37 0 470.37-16.95 448.22-16.95 448.22 0 445.64 0 445.64-35.38 448.22-35.38 448.22-18.88 470.37-18.88 470.37-35.38 472.94-35.38ZM483.44-35.38L504.64-35.38 504.64-33.25 486.01-33.25 486.01-18.95 501.51-18.95 501.51-16.88 486.01-16.88 486.01-2.13 504.64-2.13 504.64 0 483.44 0 483.44-35.38ZM530.69-32.23L530.09-31.08Q529.86-30.65 529.44-30.65L529.44-30.65Q529.11-30.65 528.6-31.11 528.09-31.58 527.21-32.14 526.34-32.7 525.02-33.18 523.71-33.65 521.79-33.65L521.79-33.65Q519.86-33.65 518.4-33.1 516.94-32.55 515.95-31.6 514.96-30.65 514.45-29.4 513.94-28.15 513.94-26.78L513.94-26.78Q513.94-24.98 514.7-23.8 515.46-22.63 516.71-21.8 517.96-20.98 519.55-20.41 521.14-19.85 522.81-19.3 524.49-18.75 526.07-18.09 527.66-17.43 528.91-16.43 530.16-15.43 530.92-13.96 531.69-12.5 531.69-10.33L531.69-10.33Q531.69-8.1 530.92-6.14 530.16-4.17 528.71-2.73 527.26-1.28 525.16-0.44 523.06 0.4 520.36 0.4L520.36 0.4Q516.86 0.4 514.34-0.84 511.81-2.08 509.91-4.23L509.91-4.23 510.61-5.33Q510.91-5.7 511.31-5.7L511.31-5.7Q511.54-5.7 511.89-5.4 512.24-5.1 512.74-4.66 513.24-4.23 513.94-3.71 514.64-3.2 515.56-2.76 516.49-2.33 517.69-2.02 518.89-1.73 520.41-1.73L520.41-1.73Q522.51-1.73 524.16-2.36 525.81-3 526.95-4.1 528.09-5.2 528.69-6.71 529.29-8.22 529.29-9.95L529.29-9.95Q529.29-11.83 528.52-13.04 527.76-14.25 526.51-15.06 525.26-15.88 523.67-16.43 522.09-16.98 520.41-17.5 518.74-18.03 517.15-18.68 515.56-19.33 514.31-20.34 513.06-21.35 512.3-22.86 511.54-24.38 511.54-26.65L511.54-26.65Q511.54-28.43 512.21-30.08 512.89-31.73 514.19-32.99 515.49-34.25 517.4-35.01 519.31-35.77 521.76-35.77L521.76-35.77Q524.51-35.77 526.7-34.9 528.89-34.02 530.69-32.23L530.69-32.23ZM537.48-1.93L537.48-1.93Q537.48-2.4 537.66-2.83 537.83-3.25 538.15-3.56 538.46-3.88 538.87-4.06 539.28-4.25 539.78-4.25L539.78-4.25Q540.26-4.25 540.68-4.06 541.11-3.88 541.42-3.56 541.73-3.25 541.92-2.83 542.11-2.4 542.11-1.93L542.11-1.93Q542.11-1.43 541.92-1.01 541.73-0.6 541.42-0.29 541.11 0.03 540.68 0.2 540.26 0.38 539.78 0.38L539.78 0.38Q538.81 0.38 538.15-0.29 537.48-0.95 537.48-1.93ZM537.48-21.85L537.48-21.85Q537.48-22.33 537.66-22.75 537.83-23.18 538.15-23.49 538.46-23.8 538.87-23.99 539.28-24.18 539.78-24.18L539.78-24.18Q540.26-24.18 540.68-23.99 541.11-23.8 541.42-23.49 541.73-23.18 541.92-22.75 542.11-22.33 542.11-21.85L542.11-21.85Q542.11-21.35 541.92-20.94 541.73-20.53 541.42-20.21 541.11-19.9 540.68-19.73 540.26-19.55 539.78-19.55L539.78-19.55Q538.81-19.55 538.15-20.21 537.48-20.88 537.48-21.85ZM590.4-17.7L590.4-17.7Q590.4-13.6 589.18-10.33 587.95-7.05 585.73-4.75 583.5-2.45 580.4-1.23 577.3 0 573.53 0L573.53 0 560.63 0 560.63-35.38 573.53-35.38Q577.3-35.38 580.4-34.15 583.5-32.93 585.73-30.63 587.95-28.33 589.18-25.05 590.4-21.78 590.4-17.7ZM587.75-17.7L587.75-17.7Q587.75-21.4 586.73-24.3 585.7-27.2 583.84-29.2 581.98-31.2 579.35-32.25 576.73-33.3 573.53-33.3L573.53-33.3 563.2-33.3 563.2-2.08 573.53-2.08Q576.73-2.08 579.35-3.13 581.98-4.17 583.84-6.18 585.7-8.18 586.73-11.08 587.75-13.98 587.75-17.7ZM598.62-35.38L619.82-35.38 619.82-33.25 601.2-33.25 601.2-18.95 616.7-18.95 616.7-16.88 601.2-16.88 601.2-2.13 619.82-2.13 619.82 0 598.62 0 598.62-35.38ZM637.9 0L623.3-35.38 625.32-35.38Q625.67-35.38 625.9-35.19 626.12-35 626.25-34.7L626.25-34.7 638.3-5.35Q638.77-4.2 639.07-2.9L639.07-2.9Q639.35-4.25 639.8-5.35L639.8-5.35 651.82-34.7Q651.95-34.98 652.18-35.18 652.42-35.38 652.77-35.38L652.77-35.38 654.77-35.38 640.17 0 637.9 0ZM690.82-17.7L690.82-17.7Q690.82-13.6 689.59-10.26 688.37-6.93 686.14-4.56 683.92-2.2 680.82-0.91 677.72 0.38 673.94 0.38L673.94 0.38Q670.22 0.38 667.12-0.91 664.02-2.2 661.79-4.56 659.57-6.93 658.33-10.26 657.09-13.6 657.09-17.7L657.09-17.7Q657.09-21.78 658.33-25.11 659.57-28.45 661.79-30.81 664.02-33.18 667.12-34.48 670.22-35.77 673.94-35.77L673.94-35.77Q677.72-35.77 680.82-34.49 683.92-33.2 686.14-30.83 688.37-28.45 689.59-25.11 690.82-21.78 690.82-17.7ZM688.17-17.7L688.17-17.7Q688.17-21.4 687.14-24.35 686.12-27.3 684.26-29.35 682.39-31.4 679.77-32.49 677.14-33.58 673.94-33.58L673.94-33.58Q670.79-33.58 668.18-32.49 665.57-31.4 663.68-29.35 661.79-27.3 660.76-24.35 659.72-21.4 659.72-17.7L659.72-17.7Q659.72-13.98 660.76-11.04 661.79-8.1 663.68-6.05 665.57-4 668.18-2.93 670.79-1.85 673.94-1.85L673.94-1.85Q677.14-1.85 679.77-2.93 682.39-4 684.26-6.05 686.12-8.1 687.14-11.04 688.17-13.98 688.17-17.7ZM709.02-14.25L702.44-14.25 702.44 0 699.89 0 699.89-35.38 709.02-35.38Q715.24-35.38 718.4-32.65 721.57-29.93 721.57-24.88L721.57-24.88Q721.57-22.55 720.7-20.6 719.84-18.65 718.22-17.24 716.59-15.83 714.27-15.04 711.94-14.25 709.02-14.25L709.02-14.25ZM702.44-33.35L702.44-16.3 709.02-16.3Q711.37-16.3 713.22-16.95 715.07-17.6 716.35-18.75 717.64-19.9 718.33-21.46 719.02-23.03 719.02-24.88L719.02-24.88Q719.02-28.95 716.5-31.15 713.99-33.35 709.02-33.35L709.02-33.35 702.44-33.35ZM746.51-32.23L745.91-31.08Q745.69-30.65 745.26-30.65L745.26-30.65Q744.94-30.65 744.43-31.11 743.91-31.58 743.04-32.14 742.16-32.7 740.85-33.18 739.54-33.65 737.61-33.65L737.61-33.65Q735.69-33.65 734.23-33.1 732.76-32.55 731.78-31.6 730.79-30.65 730.28-29.4 729.76-28.15 729.76-26.78L729.76-26.78Q729.76-24.98 730.53-23.8 731.29-22.63 732.54-21.8 733.79-20.98 735.38-20.41 736.96-19.85 738.64-19.3 740.31-18.75 741.9-18.09 743.49-17.43 744.74-16.43 745.99-15.43 746.75-13.96 747.51-12.5 747.51-10.33L747.51-10.33Q747.51-8.1 746.75-6.14 745.99-4.17 744.54-2.73 743.09-1.28 740.99-0.44 738.89 0.4 736.19 0.4L736.19 0.4Q732.69 0.4 730.16-0.84 727.64-2.08 725.74-4.23L725.74-4.23 726.44-5.33Q726.74-5.7 727.14-5.7L727.14-5.7Q727.36-5.7 727.71-5.4 728.06-5.1 728.56-4.66 729.06-4.23 729.76-3.71 730.46-3.2 731.39-2.76 732.31-2.33 733.51-2.02 734.71-1.73 736.24-1.73L736.24-1.73Q738.34-1.73 739.99-2.36 741.64-3 742.78-4.1 743.91-5.2 744.51-6.71 745.11-8.22 745.11-9.95L745.11-9.95Q745.11-11.83 744.35-13.04 743.59-14.25 742.34-15.06 741.09-15.88 739.5-16.43 737.91-16.98 736.24-17.5 734.56-18.03 732.98-18.68 731.39-19.33 730.14-20.34 728.89-21.35 728.13-22.86 727.36-24.38 727.36-26.65L727.36-26.65Q727.36-28.43 728.04-30.08 728.71-31.73 730.01-32.99 731.31-34.25 733.23-35.01 735.14-35.77 737.59-35.77L737.59-35.77Q740.34-35.77 742.53-34.9 744.71-34.02 746.51-32.23L746.51-32.23ZM764.58-35.38L785.78-35.38 785.78-33.25 767.16-33.25 767.16-18.95 782.66-18.95 782.66-16.88 767.16-16.88 767.16-2.13 785.78-2.13 785.78 0 764.58 0 764.58-35.38ZM795.38-35.38L795.38-35.38Q795.73-35.38 795.93-35.29 796.13-35.2 796.36-34.9L796.36-34.9 819.26-4.25Q819.18-5 819.18-5.7L819.18-5.7 819.18-35.38 821.43-35.38 821.43 0 820.21 0Q819.63 0 819.28-0.5L819.28-0.5 796.28-31.2Q796.36-30.45 796.36-29.78L796.36-29.78 796.36 0 794.13 0 794.13-35.38 795.38-35.38ZM847.13-1.68L847.13-1.68Q848.95-1.68 850.45-1.86 851.95-2.05 853.24-2.43 854.53-2.8 855.69-3.34 856.85-3.88 858.03-4.55L858.03-4.55 858.03-14.08 851.23-14.08Q850.95-14.08 850.77-14.25 850.58-14.43 850.58-14.65L850.58-14.65 850.58-16.05 860.35-16.05 860.35-3.48Q859.03-2.55 857.6-1.83 856.18-1.1 854.55-0.61 852.93-0.13 851.05 0.14 849.18 0.4 846.95 0.4L846.95 0.4Q843.13 0.4 839.97-0.89 836.8-2.18 834.54-4.54 832.28-6.9 831.03-10.25 829.78-13.6 829.78-17.7L829.78-17.7Q829.78-21.8 831.03-25.14 832.28-28.48 834.58-30.84 836.88-33.2 840.17-34.49 843.45-35.77 847.53-35.77L847.53-35.77Q849.55-35.77 851.27-35.5 852.98-35.23 854.45-34.69 855.93-34.15 857.2-33.36 858.48-32.58 859.65-31.55L859.65-31.55 858.98-30.45Q858.75-30.08 858.35-30.08L858.35-30.08Q858.13-30.08 857.93-30.18L857.93-30.18Q857.55-30.33 856.84-30.88 856.13-31.43 854.92-32.02 853.7-32.63 851.88-33.1 850.05-33.58 847.45-33.58L847.45-33.58Q844-33.58 841.23-32.48 838.45-31.38 836.49-29.33 834.53-27.28 833.47-24.33 832.4-21.38 832.4-17.7L832.4-17.7Q832.4-13.95 833.48-10.98 834.55-8 836.49-5.94 838.43-3.88 841.14-2.78 843.85-1.68 847.13-1.68ZM872.85-35.38L872.85 0 870.28 0 870.28-35.38 872.85-35.38ZM885.55-35.38L885.55-35.38Q885.9-35.38 886.1-35.29 886.3-35.2 886.52-34.9L886.52-34.9 909.42-4.25Q909.35-5 909.35-5.7L909.35-5.7 909.35-35.38 911.6-35.38 911.6 0 910.37 0Q909.8 0 909.45-0.5L909.45-0.5 886.45-31.2Q886.52-30.45 886.52-29.78L886.52-29.78 886.52 0 884.3 0 884.3-35.38 885.55-35.38ZM922.1-35.38L943.3-35.38 943.3-33.25 924.67-33.25 924.67-18.95 940.17-18.95 940.17-16.88 924.67-16.88 924.67-2.13 943.3-2.13 943.3 0 922.1 0 922.1-35.38ZM951.64-35.38L972.84-35.38 972.84-33.25 954.22-33.25 954.22-18.95 969.72-18.95 969.72-16.88 954.22-16.88 954.22-2.13 972.84-2.13 972.84 0 951.64 0 951.64-35.38ZM989.12-16L984.49-16 984.49 0 981.94 0 981.94-35.38 990.97-35.38Q997.09-35.38 1000.12-33.01 1003.14-30.65 1003.14-26.08L1003.14-26.08Q1003.14-24.05 1002.44-22.38 1001.74-20.7 1000.43-19.44 999.12-18.18 997.27-17.36 995.42-16.55 993.09-16.3L993.09-16.3Q993.69-15.93 994.17-15.3L994.17-15.3 1006.34 0 1004.12 0Q1003.72 0 1003.43-0.15 1003.14-0.3 1002.87-0.65L1002.87-0.65 991.54-15Q991.12-15.55 990.63-15.78 990.14-16 989.12-16L989.12-16ZM984.49-33.35L984.49-17.9 990.64-17.9Q992.99-17.9 994.85-18.46 996.72-19.03 998-20.08 999.29-21.13 999.97-22.6 1000.64-24.08 1000.64-25.93L1000.64-25.93Q1000.64-29.7 998.17-31.53 995.69-33.35 990.97-33.35L990.97-33.35 984.49-33.35Z" opacity="1" transform="matrix(1,0,0,1,0,0)" fill="#ffffff" class="wordmark-text-0" data-fill-palette-color="primary" id="text-0"></path></svg></g></svg></g></svg></g></svg></g><g><svg viewBox="0 0 28.863735110097252 28.863011921012657" height="28.863011921012657" width="28.863735110097252"><g><svg xmlns="http://www.w3.org/2000/svg" xmlns:xlink="http://www.w3.org/1999/xlink" version="1.1" x="0" y="0" viewBox="7.279893330341158 7.28 85.44214077711491 85.44" enable-background="new 0 0 100 100" xml:space="preserve" height="28.863011921012657" width="28.863735110097252" class="icon-icon-0" data-fill-palette-color="accent" id="icon-0"><path d="M91.24 67.483L74.39 58.951 90.34 50.705C90.848 50.441 90.848 50.017 90.337 49.76L72.349 40.653 91.261 30.875C92.18 30.398 92.725 29.552 92.72 28.611 92.714 27.672 92.159 26.834 91.24 26.37L54.356 7.698C53.673 7.353 52.96 7.28 52.481 7.28 52.041 7.28 51.383 7.342 50.746 7.64L8.818 27.269C7.864 27.716 7.289 28.552 7.28 29.504 7.271 30.457 7.832 31.304 8.779 31.77L28.918 41.673 9.667 50.685C9.153 50.926 9.151 51.328 9.662 51.579L26.756 59.985 8.818 68.381C7.863 68.828 7.288 69.664 7.28 70.616 7.272 71.569 7.833 72.416 8.779 72.88L48.333 92.332C48.984 92.653 49.66 92.72 50.112 92.72 50.588 92.72 51.298 92.647 51.984 92.295L91.263 71.987C92.182 71.51 92.727 70.664 92.722 69.723 92.714 68.785 92.16 67.946 91.24 67.483M52.375 11.289A1 1 0 0 1 52.481 11.28C52.542 11.28 52.587 11.288 52.563 11.274L86.872 28.642 50.215 47.6C50.205 47.602 50.167 47.61 50.112 47.61L50.098 47.631 13.353 29.562zM50.22 88.71A0.5 0.5 0 0 1 50.111 88.72L50.099 88.743 13.355 70.673 30.73 62.539 48.331 71.194C48.983 71.515 49.659 71.583 50.111 71.583 50.588 71.583 51.299 71.509 51.981 71.157L70.615 61.524 86.87 69.754z" fill="#00cc66" data-fill-palette-color="accent"></path></svg></g></svg></g></svg></g></svg></g><g><path d="M0 123.6c0-68.262 55.338-123.6 123.6-123.6 63.622 0 116.017 48.07 122.846 109.873l-0.352 0c-6.827-61.608-59.065-109.522-122.494-109.523-68.069 0-123.25 55.181-123.25 123.25 0 68.069 55.181 123.25 123.25 123.25 63.429 0 115.667-47.914 122.494-109.523l0.352 0c-6.829 61.802-59.224 109.873-122.846 109.873-68.262 0-123.6-55.338-123.6-123.6z" fill="#ffffff" stroke="transparent" data-fill-palette-color="tertiary"></path></g></svg></g><defs></defs></svg><rect width="395.52" height="247.2" fill="none" stroke="none" visibility="hidden"></rect></g></svg></g></svg>