<svg xmlns="http://www.w3.org/2000/svg" version="1.1" xmlns:xlink="http://www.w3.org/1999/xlink" xmlns:svgjs="http://svgjs.dev/svgjs" width="2000" height="212" viewBox="0 0 2000 212"><g transform="matrix(1,0,0,1,-1.2121212121212466,-0.7455800623808102)"><svg viewBox="0 0 396 42" data-background-color="#121212" preserveAspectRatio="xMidYMid meet" height="212" width="2000" xmlns="http://www.w3.org/2000/svg" xmlns:xlink="http://www.w3.org/1999/xlink"><g id="tight-bounds" transform="matrix(1,0,0,1,0.2400000000000091,0.14770925764148046)"><svg viewBox="0 0 395.52 41.70458148471706" height="41.70458148471706" width="395.52"><g><svg viewBox="0 0 451.99951096789067 47.6599171627545" height="41.70458148471706" width="395.52"><g transform="matrix(1,0,0,1,54.501910967890744,9.381780169783978)"><svg viewBox="0 0 397.4975999999999 28.896356823186547" height="28.896356823186547" width="397.4975999999999"><g id="textblocktransform"><svg viewBox="0 0 397.4975999999999 28.896356823186547" height="28.896356823186547" width="397.4975999999999" id="textblock"><g><rect width="397.4975999999999" height="1.044023565243071" x="0" y="15.04548742945688" fill="#ffffff" opacity="1" stroke-width="0" stroke="transparent" fill-opacity="1" class="rect-yte-0" data-fill-palette-color="primary" rx="1%" id="yte-0" data-palette-color="#ffffff"></rect></g><g transform="matrix(1,0,0,1,0.9887999999999693,0)"><svg viewBox="0 0 395.52 13.815616737416613" height="13.815616737416613" width="395.52"><g transform="matrix(1,0,0,1,0,0)"><svg width="395.52" viewBox="-3.6 -39.45 1237.6399999999999 44.2" height="13.815616737416613" data-palette-color="#ffffff"><path d="M20.95-34.65L20.95-11.15Q20.95-8.65 20.43-6.5 19.9-4.35 18.57-2.73 17.25-1.1 15.03-0.18 12.8 0.75 9.45 0.75L9.45 0.75Q7.75 0.75 6.33 0.48 4.9 0.2 3.75-0.23 2.6-0.65 1.75-1.13 0.9-1.6 0.4-2.05L0.4-2.05 2.3-5.9Q3.35-5.15 5.03-4.33 6.7-3.5 9.2-3.5L9.2-3.5Q12.8-3.5 14.45-5.33 16.1-7.15 16.1-11.6L16.1-11.6 16.1-34.65 20.95-34.65ZM27.9-17.35L27.9-17.35Q27.9-21.8 29.22-25.2 30.55-28.6 32.82-30.88 35.1-33.15 38.12-34.3 41.15-35.45 44.55-35.45L44.55-35.45Q47.9-35.45 50.87-34.3 53.85-33.15 56.1-30.88 58.35-28.6 59.67-25.2 61-21.8 61-17.35L61-17.35Q61-12.9 59.67-9.5 58.35-6.1 56.1-3.83 53.85-1.55 50.87-0.4 47.9 0.75 44.55 0.75L44.55 0.75Q41.15 0.75 38.12-0.4 35.1-1.55 32.82-3.83 30.55-6.1 29.22-9.5 27.9-12.9 27.9-17.35ZM33-17.35L33-17.35Q33-14.2 33.8-11.63 34.6-9.05 36.07-7.25 37.55-5.45 39.67-4.48 41.8-3.5 44.45-3.5L44.45-3.5Q47.1-3.5 49.2-4.48 51.3-5.45 52.77-7.25 54.25-9.05 55.05-11.63 55.85-14.2 55.85-17.35L55.85-17.35Q55.85-20.5 55.05-23.08 54.25-25.65 52.77-27.45 51.3-29.25 49.2-30.23 47.1-31.2 44.45-31.2L44.45-31.2Q41.8-31.2 39.67-30.23 37.55-29.25 36.07-27.45 34.6-25.65 33.8-23.08 33-20.5 33-17.35ZM90.6 0L68.2 0 68.2-34.65 89.35-34.65 89.35-30.5 73.05-30.5 73.05-20.2 87.55-20.2 87.55-16.15 73.05-16.15 73.05-4.15 90.6-4.15 90.6 0ZM127.74-4.8L123.84-4.8Q123.34-6 122.52-7.85 121.69-9.7 120.74-11.85 119.79-14 118.72-16.28 117.64-18.55 116.69-20.58 115.74-22.6 114.92-24.2 114.09-25.8 113.59-26.65L113.59-26.65Q113.04-20.75 112.69-13.88 112.34-7 112.09 0L112.09 0 107.34 0Q107.54-4.5 107.79-9.08 108.04-13.65 108.37-18.07 108.69-22.5 109.07-26.7 109.44-30.9 109.89-34.65L109.89-34.65 114.14-34.65Q115.49-32.45 117.04-29.45 118.59-26.45 120.14-23.18 121.69-19.9 123.14-16.63 124.59-13.35 125.79-10.65L125.79-10.65Q126.99-13.35 128.44-16.63 129.89-19.9 131.44-23.18 132.99-26.45 134.54-29.45 136.09-32.45 137.44-34.65L137.44-34.65 141.69-34.65Q143.39-17.9 144.24 0L144.24 0 139.49 0Q139.24-7 138.89-13.88 138.54-20.75 137.99-26.65L137.99-26.65Q137.49-25.8 136.67-24.2 135.84-22.6 134.89-20.58 133.94-18.55 132.87-16.28 131.79-14 130.84-11.85 129.89-9.7 129.06-7.85 128.24-6 127.74-4.8L127.74-4.8ZM174.24 0L151.84 0 151.84-34.65 172.99-34.65 172.99-30.5 156.69-30.5 156.69-20.2 171.19-20.2 171.19-16.15 156.69-16.15 156.69-4.15 174.24-4.15 174.24 0ZM208.19 0L204.14 0Q203.04-1.85 201.61-4.15 200.19-6.45 198.54-8.93 196.89-11.4 195.11-13.95 193.34-16.5 191.59-18.88 189.84-21.25 188.19-23.35 186.54-25.45 185.14-27.05L185.14-27.05 185.14 0 180.39 0 180.39-34.65 184.24-34.65Q186.59-32.15 189.26-28.83 191.94-25.5 194.56-21.98 197.19-18.45 199.51-15.05 201.84-11.65 203.44-9L203.44-9 203.44-34.65 208.19-34.65 208.19 0ZM245.23-17.35L245.23-17.35Q245.23-12.85 243.83-9.53 242.43-6.2 239.88-4.03 237.33-1.85 233.78-0.78 230.23 0.3 225.98 0.3L225.98 0.3Q223.88 0.3 221.36 0.13 218.83-0.05 216.78-0.55L216.78-0.55 216.78-34.15Q218.83-34.65 221.36-34.83 223.88-35 225.98-35L225.98-35Q230.23-35 233.78-33.93 237.33-32.85 239.88-30.68 242.43-28.5 243.83-25.18 245.23-21.85 245.23-17.35ZM226.38-3.95L226.38-3.95Q233.28-3.95 236.68-7.48 240.08-11 240.08-17.35L240.08-17.35Q240.08-23.7 236.68-27.23 233.28-30.75 226.38-30.75L226.38-30.75Q224.33-30.75 223.21-30.7 222.08-30.65 221.63-30.6L221.63-30.6 221.63-4.1Q222.08-4.05 223.21-4 224.33-3.95 226.38-3.95ZM274.83 0L252.43 0 252.43-34.65 273.58-34.65 273.58-30.5 257.28-30.5 257.28-20.2 271.78-20.2 271.78-16.15 257.28-16.15 257.28-4.15 274.83-4.15 274.83 0ZM302.98-34.65L302.98-30.8Q301.83-29.5 300.3-27.68 298.78-25.85 297.08-23.63 295.38-21.4 293.58-18.93 291.78-16.45 290.05-13.93 288.33-11.4 286.78-8.9 285.23-6.4 283.98-4.15L283.98-4.15 303.48-4.15 303.48 0 278.33 0 278.33-3.25Q279.38-5.25 280.8-7.65 282.23-10.05 283.85-12.55 285.48-15.05 287.23-17.6 288.98-20.15 290.7-22.5 292.43-24.85 294.05-26.9 295.68-28.95 297.03-30.5L297.03-30.5 279.23-30.5 279.23-34.65 302.98-34.65ZM303.63-12.8L303.63-17.15 315.98-17.15 315.98-12.8 303.63-12.8ZM343.37-20.2L343.37-34.65 348.22-34.65 348.22 0 343.37 0 343.37-16 326.42-16 326.42 0 321.57 0 321.57-34.65 326.42-34.65 326.42-20.2 343.37-20.2ZM369.72 0.75L369.72 0.75Q366.32 0.75 363.82-0.3 361.32-1.35 359.72-3.18 358.12-5 357.35-7.5 356.57-10 356.57-12.9L356.57-12.9 356.57-34.65 361.42-34.65 361.42-13.45Q361.42-8.25 363.72-5.9 366.02-3.55 369.72-3.55L369.72-3.55Q371.57-3.55 373.1-4.13 374.62-4.7 375.72-5.9 376.82-7.1 377.42-8.97 378.02-10.85 378.02-13.45L378.02-13.45 378.02-34.65 382.87-34.65 382.87-12.9Q382.87-10 382.1-7.5 381.32-5 379.7-3.18 378.07-1.35 375.6-0.3 373.12 0.75 369.72 0.75ZM412.37-4.15L412.37-17.05 417.22-17.05 417.22-0.85Q416.62-0.65 415.49-0.4 414.37-0.15 412.89 0.1 411.42 0.35 409.67 0.53 407.92 0.7 406.12 0.7L406.12 0.7Q402.47 0.7 399.47-0.5 396.47-1.7 394.32-4 392.17-6.3 390.99-9.65 389.82-13 389.82-17.35L389.82-17.35Q389.82-21.7 391.14-25.08 392.47-28.45 394.72-30.75 396.97-33.05 399.99-34.25 403.02-35.45 406.47-35.45L406.47-35.45Q408.82-35.45 410.64-35.15 412.47-34.85 413.77-34.45 415.07-34.05 415.89-33.65 416.72-33.25 417.02-33.05L417.02-33.05 415.47-29Q414.02-29.95 411.62-30.58 409.22-31.2 406.72-31.2L406.72-31.2Q404.07-31.2 401.89-30.25 399.72-29.3 398.19-27.5 396.67-25.7 395.82-23.13 394.97-20.55 394.97-17.35L394.97-17.35Q394.97-14.25 395.69-11.7 396.42-9.15 397.89-7.33 399.37-5.5 401.54-4.5 403.72-3.5 406.67-3.5L406.67-3.5Q408.77-3.5 410.24-3.73 411.72-3.95 412.37-4.15L412.37-4.15ZM446.62-20.2L446.62-34.65 451.47-34.65 451.47 0 446.62 0 446.62-16 429.67-16 429.67 0 424.82 0 424.82-34.65 429.67-34.65 429.67-20.2 446.62-20.2ZM482.46 0L460.06 0 460.06-34.65 481.21-34.65 481.21-30.5 464.91-30.5 464.91-20.2 479.41-20.2 479.41-16.15 464.91-16.15 464.91-4.15 482.46-4.15 482.46 0ZM496.66-3.45L496.66-3.45Q504.26-3.45 504.26-8.65L504.26-8.65Q504.26-10.25 503.59-11.38 502.91-12.5 501.76-13.33 500.61-14.15 499.14-14.75 497.66-15.35 496.01-15.95L496.01-15.95Q494.11-16.6 492.41-17.43 490.71-18.25 489.46-19.38 488.21-20.5 487.49-22.05 486.76-23.6 486.76-25.8L486.76-25.8Q486.76-30.35 489.86-32.9 492.96-35.45 498.41-35.45L498.41-35.45Q501.56-35.45 504.14-34.77 506.71-34.1 507.91-33.3L507.91-33.3 506.36-29.35Q505.31-30 503.24-30.63 501.16-31.25 498.41-31.25L498.41-31.25Q497.01-31.25 495.81-30.95 494.61-30.65 493.71-30.05 492.81-29.45 492.29-28.53 491.76-27.6 491.76-26.35L491.76-26.35Q491.76-24.95 492.31-24 492.86-23.05 493.86-22.33 494.86-21.6 496.19-21 497.51-20.4 499.11-19.8L499.11-19.8Q501.36-18.9 503.24-18 505.11-17.1 506.49-15.85 507.86-14.6 508.61-12.88 509.36-11.15 509.36-8.7L509.36-8.7Q509.36-4.15 506.04-1.7 502.71 0.75 496.66 0.75L496.66 0.75Q494.61 0.75 492.89 0.48 491.16 0.2 489.81-0.18 488.46-0.55 487.49-0.98 486.51-1.4 485.96-1.7L485.96-1.7 487.41-5.7Q488.56-5.05 490.91-4.25 493.26-3.45 496.66-3.45ZM520.41-2.7L520.41-2.7Q520.41-1.35 519.51-0.35 518.61 0.65 517.06 0.65L517.06 0.65Q515.51 0.65 514.61-0.35 513.71-1.35 513.71-2.7L513.71-2.7Q513.71-4.05 514.61-5.05 515.51-6.05 517.06-6.05L517.06-6.05Q518.61-6.05 519.51-5.05 520.41-4.05 520.41-2.7ZM520.41-22.65L520.41-22.65Q520.41-21.3 519.51-20.3 518.61-19.3 517.06-19.3L517.06-19.3Q515.51-19.3 514.61-20.3 513.71-21.3 513.71-22.65L513.71-22.65Q513.71-24 514.61-25 515.51-26 517.06-26L517.06-26Q518.61-26 519.51-25 520.41-24 520.41-22.65ZM547.1-3.45L547.1-3.45Q554.7-3.45 554.7-8.65L554.7-8.65Q554.7-10.25 554.03-11.38 553.35-12.5 552.2-13.33 551.05-14.15 549.58-14.75 548.1-15.35 546.45-15.95L546.45-15.95Q544.55-16.6 542.85-17.43 541.15-18.25 539.9-19.38 538.65-20.5 537.93-22.05 537.2-23.6 537.2-25.8L537.2-25.8Q537.2-30.35 540.3-32.9 543.4-35.45 548.85-35.45L548.85-35.45Q552-35.45 554.58-34.77 557.15-34.1 558.35-33.3L558.35-33.3 556.8-29.35Q555.75-30 553.68-30.63 551.6-31.25 548.85-31.25L548.85-31.25Q547.45-31.25 546.25-30.95 545.05-30.65 544.15-30.05 543.25-29.45 542.73-28.53 542.2-27.6 542.2-26.35L542.2-26.35Q542.2-24.95 542.75-24 543.3-23.05 544.3-22.33 545.3-21.6 546.63-21 547.95-20.4 549.55-19.8L549.55-19.8Q551.8-18.9 553.68-18 555.55-17.1 556.93-15.85 558.3-14.6 559.05-12.88 559.8-11.15 559.8-8.7L559.8-8.7Q559.8-4.15 556.48-1.7 553.15 0.75 547.1 0.75L547.1 0.75Q545.05 0.75 543.33 0.48 541.6 0.2 540.25-0.18 538.9-0.55 537.93-0.98 536.95-1.4 536.4-1.7L536.4-1.7 537.85-5.7Q539-5.05 541.35-4.25 543.7-3.45 547.1-3.45ZM588.05 0L565.65 0 565.65-34.65 586.8-34.65 586.8-30.5 570.5-30.5 570.5-20.2 585-20.2 585-16.15 570.5-16.15 570.5-4.15 588.05-4.15 588.05 0ZM622 0L617.95 0Q616.85-1.85 615.42-4.15 614-6.45 612.35-8.93 610.7-11.4 608.92-13.95 607.15-16.5 605.4-18.88 603.65-21.25 602-23.35 600.35-25.45 598.95-27.05L598.95-27.05 598.95 0 594.2 0 594.2-34.65 598.05-34.65Q600.4-32.15 603.07-28.83 605.75-25.5 608.37-21.98 611-18.45 613.32-15.05 615.65-11.65 617.25-9L617.25-9 617.25-34.65 622-34.65 622 0ZM630.59 0L630.59-34.65 635.44-34.65 635.44 0 630.59 0ZM642.64-17.35L642.64-17.35Q642.64-21.8 643.97-25.2 645.29-28.6 647.57-30.88 649.84-33.15 652.87-34.3 655.89-35.45 659.29-35.45L659.29-35.45Q662.64-35.45 665.62-34.3 668.59-33.15 670.84-30.88 673.09-28.6 674.42-25.2 675.74-21.8 675.74-17.35L675.74-17.35Q675.74-12.9 674.42-9.5 673.09-6.1 670.84-3.83 668.59-1.55 665.62-0.4 662.64 0.75 659.29 0.75L659.29 0.75Q655.89 0.75 652.87-0.4 649.84-1.55 647.57-3.83 645.29-6.1 643.97-9.5 642.64-12.9 642.64-17.35ZM647.74-17.35L647.74-17.35Q647.74-14.2 648.54-11.63 649.34-9.05 650.82-7.25 652.29-5.45 654.42-4.48 656.54-3.5 659.19-3.5L659.19-3.5Q661.84-3.5 663.94-4.48 666.04-5.45 667.52-7.25 668.99-9.05 669.79-11.63 670.59-14.2 670.59-17.35L670.59-17.35Q670.59-20.5 669.79-23.08 668.99-25.65 667.52-27.45 666.04-29.25 663.94-30.23 661.84-31.2 659.19-31.2L659.19-31.2Q656.54-31.2 654.42-30.23 652.29-29.25 650.82-27.45 649.34-25.65 648.54-23.08 647.74-20.5 647.74-17.35ZM699.89-14.5L699.89-14.5Q700.69-13.5 701.91-11.88 703.14-10.25 704.44-8.28 705.74-6.3 707.01-4.15 708.29-2 709.19 0L709.19 0 703.89 0Q702.89-1.9 701.71-3.85 700.54-5.8 699.34-7.58 698.14-9.35 696.96-10.9 695.79-12.45 694.84-13.6L694.84-13.6Q694.19-13.55 693.51-13.55 692.84-13.55 692.14-13.55L692.14-13.55 687.79-13.55 687.79 0 682.94 0 682.94-34.15Q684.99-34.65 687.51-34.83 690.04-35 692.14-35L692.14-35Q699.44-35 703.26-32.25 707.09-29.5 707.09-24.05L707.09-24.05Q707.09-20.6 705.26-18.15 703.44-15.7 699.89-14.5ZM692.54-30.75L692.54-30.75Q689.44-30.75 687.79-30.6L687.79-30.6 687.79-17.55 691.24-17.55Q693.74-17.55 695.74-17.8 697.74-18.05 699.11-18.75 700.49-19.45 701.24-20.73 701.99-22 701.99-24.1L701.99-24.1Q701.99-26.05 701.24-27.35 700.49-28.65 699.21-29.4 697.94-30.15 696.21-30.45 694.49-30.75 692.54-30.75ZM733.98-3.45L733.98-3.45Q741.58-3.45 741.58-8.65L741.58-8.65Q741.58-10.25 740.91-11.38 740.23-12.5 739.08-13.33 737.93-14.15 736.46-14.75 734.98-15.35 733.33-15.95L733.33-15.95Q731.43-16.6 729.73-17.43 728.03-18.25 726.78-19.38 725.53-20.5 724.81-22.05 724.08-23.6 724.08-25.8L724.08-25.8Q724.08-30.35 727.18-32.9 730.28-35.45 735.73-35.45L735.73-35.45Q738.88-35.45 741.46-34.77 744.03-34.1 745.23-33.3L745.23-33.3 743.68-29.35Q742.63-30 740.56-30.63 738.48-31.25 735.73-31.25L735.73-31.25Q734.33-31.25 733.13-30.95 731.93-30.65 731.03-30.05 730.13-29.45 729.61-28.53 729.08-27.6 729.08-26.35L729.08-26.35Q729.08-24.95 729.63-24 730.18-23.05 731.18-22.33 732.18-21.6 733.51-21 734.83-20.4 736.43-19.8L736.43-19.8Q738.68-18.9 740.56-18 742.43-17.1 743.81-15.85 745.18-14.6 745.93-12.88 746.68-11.15 746.68-8.7L746.68-8.7Q746.68-4.15 743.36-1.7 740.03 0.75 733.98 0.75L733.98 0.75Q731.93 0.75 730.21 0.48 728.48 0.2 727.13-0.18 725.78-0.55 724.81-0.98 723.83-1.4 723.28-1.7L723.28-1.7 724.73-5.7Q725.88-5.05 728.23-4.25 730.58-3.45 733.98-3.45ZM751.13-17.35L751.13-17.35Q751.13-21.8 752.46-25.2 753.78-28.6 756.06-30.88 758.33-33.15 761.36-34.3 764.38-35.45 767.78-35.45L767.78-35.45Q771.13-35.45 774.11-34.3 777.08-33.15 779.33-30.88 781.58-28.6 782.91-25.2 784.23-21.8 784.23-17.35L784.23-17.35Q784.23-12.9 782.91-9.5 781.58-6.1 779.33-3.83 777.08-1.55 774.11-0.4 771.13 0.75 767.78 0.75L767.78 0.75Q764.38 0.75 761.36-0.4 758.33-1.55 756.06-3.83 753.78-6.1 752.46-9.5 751.13-12.9 751.13-17.35ZM756.23-17.35L756.23-17.35Q756.23-14.2 757.03-11.63 757.83-9.05 759.31-7.25 760.78-5.45 762.91-4.48 765.03-3.5 767.68-3.5L767.68-3.5Q770.33-3.5 772.43-4.48 774.53-5.45 776.01-7.25 777.48-9.05 778.28-11.63 779.08-14.2 779.08-17.35L779.08-17.35Q779.08-20.5 778.28-23.08 777.48-25.65 776.01-27.45 774.53-29.25 772.43-30.23 770.33-31.2 767.68-31.2L767.68-31.2Q765.03-31.2 762.91-30.23 760.78-29.25 759.31-27.45 757.83-25.65 757.03-23.08 756.23-20.5 756.23-17.35ZM796.28 0L791.43 0 791.43-34.65 812.33-34.65 812.33-30.5 796.28-30.5 796.28-20.05 810.53-20.05 810.53-15.95 796.28-15.95 796.28 0ZM815.48-34.65L842.13-34.65 842.13-30.45 831.23-30.45 831.23 0 826.38 0 826.38-30.45 815.48-30.45 815.48-34.65ZM867.02-23.5L867.02-23.5Q864.92-16.8 862.77-11.1 860.62-5.4 858.47 0L858.47 0 853.62 0Q850.97-7.65 848.95-16.15 846.92-24.65 845.17-34.65L845.17-34.65 850.27-34.65Q850.97-30.75 851.72-26.85 852.47-22.95 853.27-19.28 854.07-15.6 854.87-12.25 855.67-8.9 856.52-6.05L856.52-6.05Q858.52-11.3 860.77-17.57 863.02-23.85 864.97-30.55L864.97-30.55 869.17-30.55Q871.12-23.85 873.42-17.57 875.72-11.3 877.72-6.05L877.72-6.05Q878.52-8.85 879.32-12.2 880.12-15.55 880.9-19.23 881.67-22.9 882.42-26.83 883.17-30.75 883.87-34.65L883.87-34.65 888.82-34.65Q887.02-24.65 885-16.15 882.97-7.65 880.37 0L880.37 0 875.52 0Q873.32-5.4 871.22-11.1 869.12-16.8 867.02-23.5ZM922.07 0L916.77 0Q915.92-2.25 915.17-4.42 914.42-6.6 913.62-8.85L913.62-8.85 897.92-8.85 894.77 0 889.72 0Q891.72-5.5 893.47-10.18 895.22-14.85 896.9-19.05 898.57-23.25 900.22-27.08 901.87-30.9 903.67-34.65L903.67-34.65 908.12-34.65Q909.92-30.9 911.57-27.08 913.22-23.25 914.9-19.05 916.57-14.85 918.32-10.18 920.07-5.5 922.07 0L922.07 0ZM899.32-12.85L912.22-12.85Q910.62-17.2 909.05-21.28 907.47-25.35 905.77-29.1L905.77-29.1Q904.02-25.35 902.45-21.28 900.87-17.2 899.32-12.85L899.32-12.85ZM943.72-14.5L943.72-14.5Q944.52-13.5 945.74-11.88 946.97-10.25 948.27-8.28 949.57-6.3 950.84-4.15 952.12-2 953.02 0L953.02 0 947.72 0Q946.72-1.9 945.54-3.85 944.37-5.8 943.17-7.58 941.97-9.35 940.79-10.9 939.62-12.45 938.67-13.6L938.67-13.6Q938.02-13.55 937.34-13.55 936.67-13.55 935.97-13.55L935.97-13.55 931.62-13.55 931.62 0 926.77 0 926.77-34.15Q928.82-34.65 931.34-34.83 933.87-35 935.97-35L935.97-35Q943.27-35 947.09-32.25 950.92-29.5 950.92-24.05L950.92-24.05Q950.92-20.6 949.09-18.15 947.27-15.7 943.72-14.5ZM936.37-30.75L936.37-30.75Q933.27-30.75 931.62-30.6L931.62-30.6 931.62-17.55 935.07-17.55Q937.57-17.55 939.57-17.8 941.57-18.05 942.94-18.75 944.32-19.45 945.07-20.73 945.82-22 945.82-24.1L945.82-24.1Q945.82-26.05 945.07-27.35 944.32-28.65 943.04-29.4 941.77-30.15 940.04-30.45 938.32-30.75 936.37-30.75ZM980.62 0L958.22 0 958.22-34.65 979.37-34.65 979.37-30.5 963.07-30.5 963.07-20.2 977.57-20.2 977.57-16.15 963.07-16.15 963.07-4.15 980.62-4.15 980.62 0ZM1020.71 0L998.31 0 998.31-34.65 1019.46-34.65 1019.46-30.5 1003.16-30.5 1003.16-20.2 1017.66-20.2 1017.66-16.15 1003.16-16.15 1003.16-4.15 1020.71-4.15 1020.71 0ZM1054.66 0L1050.61 0Q1049.51-1.85 1048.08-4.15 1046.66-6.45 1045.01-8.93 1043.36-11.4 1041.58-13.95 1039.81-16.5 1038.06-18.88 1036.31-21.25 1034.66-23.35 1033.01-25.45 1031.61-27.05L1031.61-27.05 1031.61 0 1026.86 0 1026.86-34.65 1030.71-34.65Q1033.06-32.15 1035.73-28.83 1038.41-25.5 1041.03-21.98 1043.66-18.45 1045.98-15.05 1048.31-11.65 1049.91-9L1049.91-9 1049.91-34.65 1054.66-34.65 1054.66 0ZM1084.41-4.15L1084.41-17.05 1089.26-17.05 1089.26-0.85Q1088.66-0.65 1087.53-0.4 1086.41-0.15 1084.93 0.1 1083.46 0.35 1081.71 0.53 1079.96 0.7 1078.16 0.7L1078.16 0.7Q1074.51 0.7 1071.51-0.5 1068.51-1.7 1066.36-4 1064.21-6.3 1063.03-9.65 1061.86-13 1061.86-17.35L1061.86-17.35Q1061.86-21.7 1063.18-25.08 1064.51-28.45 1066.76-30.75 1069.01-33.05 1072.03-34.25 1075.06-35.45 1078.51-35.45L1078.51-35.45Q1080.86-35.45 1082.68-35.15 1084.51-34.85 1085.81-34.45 1087.11-34.05 1087.93-33.65 1088.76-33.25 1089.06-33.05L1089.06-33.05 1087.51-29Q1086.06-29.95 1083.66-30.58 1081.26-31.2 1078.76-31.2L1078.76-31.2Q1076.11-31.2 1073.93-30.25 1071.76-29.3 1070.23-27.5 1068.71-25.7 1067.86-23.13 1067.01-20.55 1067.01-17.35L1067.01-17.35Q1067.01-14.25 1067.73-11.7 1068.46-9.15 1069.93-7.33 1071.41-5.5 1073.58-4.5 1075.76-3.5 1078.71-3.5L1078.71-3.5Q1080.81-3.5 1082.28-3.73 1083.76-3.95 1084.41-4.15L1084.41-4.15ZM1096.85 0L1096.85-34.65 1101.7-34.65 1101.7 0 1096.85 0ZM1138.1 0L1134.05 0Q1132.95-1.85 1131.53-4.15 1130.1-6.45 1128.45-8.93 1126.8-11.4 1125.03-13.95 1123.25-16.5 1121.5-18.88 1119.75-21.25 1118.1-23.35 1116.45-25.45 1115.05-27.05L1115.05-27.05 1115.05 0 1110.3 0 1110.3-34.65 1114.15-34.65Q1116.5-32.15 1119.18-28.83 1121.85-25.5 1124.48-21.98 1127.1-18.45 1129.43-15.05 1131.75-11.65 1133.35-9L1133.35-9 1133.35-34.65 1138.1-34.65 1138.1 0ZM1169.1 0L1146.7 0 1146.7-34.65 1167.85-34.65 1167.85-30.5 1151.55-30.5 1151.55-20.2 1166.05-20.2 1166.05-16.15 1151.55-16.15 1151.55-4.15 1169.1-4.15 1169.1 0ZM1197.65 0L1175.25 0 1175.25-34.65 1196.4-34.65 1196.4-30.5 1180.1-30.5 1180.1-20.2 1194.6-20.2 1194.6-16.15 1180.1-16.15 1180.1-4.15 1197.65-4.15 1197.65 0ZM1220.74-14.5L1220.74-14.5Q1221.54-13.5 1222.77-11.88 1223.99-10.25 1225.29-8.28 1226.59-6.3 1227.87-4.15 1229.14-2 1230.04 0L1230.04 0 1224.74 0Q1223.74-1.9 1222.57-3.85 1221.39-5.8 1220.19-7.58 1218.99-9.35 1217.82-10.9 1216.64-12.45 1215.69-13.6L1215.69-13.6Q1215.04-13.55 1214.37-13.55 1213.69-13.55 1212.99-13.55L1212.99-13.55 1208.64-13.55 1208.64 0 1203.79 0 1203.79-34.15Q1205.84-34.65 1208.37-34.83 1210.89-35 1212.99-35L1212.99-35Q1220.29-35 1224.12-32.25 1227.94-29.5 1227.94-24.05L1227.94-24.05Q1227.94-20.6 1226.12-18.15 1224.29-15.7 1220.74-14.5ZM1213.39-30.75L1213.39-30.75Q1210.29-30.75 1208.64-30.6L1208.64-30.6 1208.64-17.55 1212.09-17.55Q1214.59-17.55 1216.59-17.8 1218.59-18.05 1219.97-18.75 1221.34-19.45 1222.09-20.73 1222.84-22 1222.84-24.1L1222.84-24.1Q1222.84-26.05 1222.09-27.35 1221.34-28.65 1220.07-29.4 1218.79-30.15 1217.07-30.45 1215.34-30.75 1213.39-30.75Z" opacity="1" transform="matrix(1,0,0,1,0,0)" fill="#ffffff" class="wordmark-text-0" data-fill-palette-color="primary" id="text-0"></path></svg></g></svg></g><g transform="matrix(1,0,0,1,3.5,17.319381686740215)"><svg viewBox="0 0 388.52 11.576975136446329" height="11.576975136446329" width="388.52"><g transform="matrix(1,0,0,1,0,0)"><svg width="388.52" viewBox="-0.10000000000000009 -42.8 1855.82 56.199999999999996" height="11.576975136446329" data-palette-color="#ffffff"><path d="M26.6 0L3.9 0 12.2-34.65 33.7-34.65 32.45-29.4 17.2-29.4 15.15-20.7 28.65-20.7 27.4-15.55 13.95-15.55 11.45-5.25 27.85-5.25 26.6 0ZM48.88 0L54.88-25.05Q56.88-25.65 59.45-26.18 62.03-26.7 65.08-26.7L65.08-26.7Q69.68-26.7 71.83-24.45 73.98-22.2 73.98-18.4L73.98-18.4Q73.98-17.35 73.8-16.18 73.63-15 73.38-13.75L73.38-13.75 70.08 0 64.03 0 67.13-13.1Q67.38-14.2 67.63-15.35 67.88-16.5 67.93-17.55L67.93-17.55Q67.98-19.3 67.1-20.45 66.23-21.6 63.68-21.6L63.68-21.6Q61.53-21.6 59.98-21.15L59.98-21.15 54.93 0 48.88 0ZM101.01 4.3L101.01 4.3Q104.71 4.3 106.58 2.6 108.46 0.9 109.11-2.05L109.11-2.05 109.26-2.75Q108.26-2.25 106.86-1.83 105.46-1.4 103.91-1.4L103.91-1.4Q99.51-1.4 97.38-3.78 95.26-6.15 95.26-10.1L95.26-10.1Q95.26-13.7 96.51-16.75 97.76-19.8 100.03-22.03 102.31-24.25 105.51-25.5 108.71-26.75 112.61-26.75L112.61-26.75Q114.51-26.75 116.68-26.33 118.86-25.9 120.61-24.95L120.61-24.95 115.31-2.75Q114.61 0.2 113.53 2.48 112.46 4.75 110.71 6.28 108.96 7.8 106.38 8.6 103.81 9.4 100.16 9.4L100.16 9.4Q97.51 9.4 95.38 8.83 93.26 8.25 91.66 7.4L91.66 7.4 93.81 2.5Q95.16 3.3 96.93 3.8 98.71 4.3 101.01 4.3ZM105.41-6.3L105.41-6.3Q106.76-6.3 108.18-6.8 109.61-7.3 110.56-8.05L110.56-8.05 113.76-21.4Q112.61-21.65 111.51-21.65L111.51-21.65Q109.21-21.65 107.33-20.8 105.46-19.95 104.11-18.5 102.76-17.05 102.01-15.13 101.26-13.2 101.26-11L101.26-11Q101.26-8.8 102.21-7.55 103.16-6.3 105.41-6.3ZM151.04-26.15L144.74 0 138.74 0 144.99-26.15 151.04-26.15ZM149.24-30.1L149.24-30.1Q147.89-30.1 146.89-30.9 145.89-31.7 145.89-33.3L145.89-33.3Q145.89-35.15 147.16-36.35 148.44-37.55 150.09-37.55L150.09-37.55Q151.44-37.55 152.46-36.73 153.49-35.9 153.49-34.3L153.49-34.3Q153.49-32.45 152.19-31.28 150.89-30.1 149.24-30.1ZM168.92 0L174.92-25.05Q176.92-25.65 179.49-26.18 182.07-26.7 185.12-26.7L185.12-26.7Q189.72-26.7 191.87-24.45 194.02-22.2 194.02-18.4L194.02-18.4Q194.02-17.35 193.84-16.18 193.67-15 193.42-13.75L193.42-13.75 190.12 0 184.07 0 187.17-13.1Q187.42-14.2 187.67-15.35 187.92-16.5 187.97-17.55L187.97-17.55Q188.02-19.3 187.14-20.45 186.27-21.6 183.72-21.6L183.72-21.6Q181.57-21.6 180.02-21.15L180.02-21.15 174.97 0 168.92 0ZM214.9-9.45L214.9-9.45Q214.9-12.8 215.97-15.93 217.05-19.05 219.07-21.48 221.1-23.9 223.95-25.35 226.8-26.8 230.35-26.8L230.35-26.8Q234.15-26.8 236.25-24.85 238.35-22.9 238.35-19.85L238.35-19.85Q238.35-16.7 236.8-14.75 235.25-12.8 232.77-11.7 230.3-10.6 227.17-10.2 224.05-9.8 220.85-9.7L220.85-9.7Q220.8-9.6 220.8-9.5L220.8-9.5 220.8-9Q220.8-4.45 226.55-4.45L226.55-4.45Q229.95-4.45 233.35-5.85L233.35-5.85 233.85-0.95Q232.65-0.4 230.45 0.15 228.25 0.7 225.45 0.7L225.45 0.7Q222.65 0.7 220.65-0.1 218.65-0.9 217.37-2.3 216.1-3.7 215.5-5.53 214.9-7.35 214.9-9.45ZM229.45-21.85L229.45-21.85Q227.95-21.85 226.6-21.25 225.25-20.65 224.2-19.6 223.15-18.55 222.37-17.13 221.6-15.7 221.25-14.05L221.25-14.05Q227.25-14.25 229.97-15.5 232.7-16.75 232.7-19.25L232.7-19.25Q232.7-20.25 231.97-21.05 231.25-21.85 229.45-21.85ZM257.68-9.45L257.68-9.45Q257.68-12.8 258.75-15.93 259.83-19.05 261.85-21.48 263.88-23.9 266.73-25.35 269.58-26.8 273.13-26.8L273.13-26.8Q276.93-26.8 279.03-24.85 281.13-22.9 281.13-19.85L281.13-19.85Q281.13-16.7 279.58-14.75 278.03-12.8 275.55-11.7 273.08-10.6 269.95-10.2 266.83-9.8 263.63-9.7L263.63-9.7Q263.58-9.6 263.58-9.5L263.58-9.5 263.58-9Q263.58-4.45 269.33-4.45L269.33-4.45Q272.73-4.45 276.13-5.85L276.13-5.85 276.63-0.95Q275.43-0.4 273.23 0.15 271.03 0.7 268.23 0.7L268.23 0.7Q265.43 0.7 263.43-0.1 261.43-0.9 260.15-2.3 258.88-3.7 258.28-5.53 257.68-7.35 257.68-9.45ZM272.23-21.85L272.23-21.85Q270.73-21.85 269.38-21.25 268.03-20.65 266.98-19.6 265.93-18.55 265.15-17.13 264.38-15.7 264.03-14.05L264.03-14.05Q270.03-14.25 272.75-15.5 275.48-16.75 275.48-19.25L275.48-19.25Q275.48-20.25 274.75-21.05 274.03-21.85 272.23-21.85ZM320.36-25.85L318.61-20.8Q317.61-21.15 316.46-21.35 315.31-21.55 313.76-21.55L313.76-21.55Q312.91-21.55 311.96-21.43 311.01-21.3 310.36-21.1L310.36-21.1 305.31 0 299.26 0 305.26-24.95Q307.36-25.65 309.81-26.18 312.26-26.7 315.11-26.7L315.11-26.7Q315.71-26.7 316.46-26.63 317.21-26.55 317.93-26.45 318.66-26.35 319.28-26.2 319.91-26.05 320.36-25.85L320.36-25.85ZM348.14-26.15L341.84 0 335.84 0 342.09-26.15 348.14-26.15ZM346.34-30.1L346.34-30.1Q344.99-30.1 343.99-30.9 342.99-31.7 342.99-33.3L342.99-33.3Q342.99-35.15 344.26-36.35 345.54-37.55 347.19-37.55L347.19-37.55Q348.54-37.55 349.56-36.73 350.59-35.9 350.59-34.3L350.59-34.3Q350.59-32.45 349.29-31.28 347.99-30.1 346.34-30.1ZM366.02 0L372.02-25.05Q374.02-25.65 376.59-26.18 379.17-26.7 382.22-26.7L382.22-26.7Q386.82-26.7 388.97-24.45 391.12-22.2 391.12-18.4L391.12-18.4Q391.12-17.35 390.94-16.18 390.77-15 390.52-13.75L390.52-13.75 387.22 0 381.17 0 384.27-13.1Q384.52-14.2 384.77-15.35 385.02-16.5 385.07-17.55L385.07-17.55Q385.12-19.3 384.24-20.45 383.37-21.6 380.82-21.6L380.82-21.6Q378.67-21.6 377.12-21.15L377.12-21.15 372.07 0 366.02 0ZM418.15 4.3L418.15 4.3Q421.85 4.3 423.72 2.6 425.6 0.9 426.25-2.05L426.25-2.05 426.4-2.75Q425.4-2.25 424-1.83 422.6-1.4 421.05-1.4L421.05-1.4Q416.65-1.4 414.52-3.78 412.4-6.15 412.4-10.1L412.4-10.1Q412.4-13.7 413.65-16.75 414.9-19.8 417.17-22.03 419.45-24.25 422.65-25.5 425.85-26.75 429.75-26.75L429.75-26.75Q431.65-26.75 433.82-26.33 436-25.9 437.75-24.95L437.75-24.95 432.45-2.75Q431.75 0.2 430.67 2.48 429.6 4.75 427.85 6.28 426.1 7.8 423.52 8.6 420.95 9.4 417.3 9.4L417.3 9.4Q414.65 9.4 412.52 8.83 410.4 8.25 408.8 7.4L408.8 7.4 410.95 2.5Q412.3 3.3 414.07 3.8 415.85 4.3 418.15 4.3ZM422.55-6.3L422.55-6.3Q423.9-6.3 425.32-6.8 426.75-7.3 427.7-8.05L427.7-8.05 430.9-21.4Q429.75-21.65 428.65-21.65L428.65-21.65Q426.35-21.65 424.47-20.8 422.6-19.95 421.25-18.5 419.9-17.05 419.15-15.13 418.4-13.2 418.4-11L418.4-11Q418.4-8.8 419.35-7.55 420.3-6.3 422.55-6.3ZM486.51-11.55L491.61-33.05 497.91-34.05 496.01-26.15 504.56-26.15 503.36-21.15 494.81-21.15 492.31-10.8Q492.06-9.7 491.96-8.97 491.86-8.25 491.86-7.65L491.86-7.65Q491.86-7.05 491.98-6.48 492.11-5.9 492.48-5.48 492.86-5.05 493.58-4.78 494.31-4.5 495.56-4.5L495.56-4.5Q496.91-4.5 498.16-4.85 499.41-5.2 500.36-5.6L500.36-5.6 500.81-0.75Q499.66-0.25 497.91 0.2 496.16 0.65 493.81 0.65L493.81 0.65Q489.51 0.65 487.66-1.23 485.81-3.1 485.81-6.35L485.81-6.35Q485.81-7.55 485.98-8.83 486.16-10.1 486.51-11.55L486.51-11.55ZM527.09 0L521.04 0 530.09-37.8 536.39-38.8 533.29-25.95Q534.29-26.2 535.46-26.43 536.64-26.65 537.79-26.65L537.79-26.65Q539.99-26.65 541.56-26.03 543.14-25.4 544.16-24.3 545.19-23.2 545.66-21.65 546.14-20.1 546.14-18.3L546.14-18.3Q546.14-16.15 545.54-13.75L545.54-13.75 542.24 0 536.19 0 539.34-13.1Q539.59-14.25 539.84-15.45 540.09-16.65 540.09-17.7L540.09-17.7Q540.09-19.35 539.21-20.48 538.34-21.6 535.89-21.6L535.89-21.6Q534.89-21.6 533.89-21.43 532.89-21.25 532.09-21L532.09-21 527.09 0ZM567.02-9.45L567.02-9.45Q567.02-12.8 568.09-15.93 569.17-19.05 571.19-21.48 573.22-23.9 576.07-25.35 578.92-26.8 582.47-26.8L582.47-26.8Q586.27-26.8 588.37-24.85 590.47-22.9 590.47-19.85L590.47-19.85Q590.47-16.7 588.92-14.75 587.37-12.8 584.89-11.7 582.42-10.6 579.29-10.2 576.17-9.8 572.97-9.7L572.97-9.7Q572.92-9.6 572.92-9.5L572.92-9.5 572.92-9Q572.92-4.45 578.67-4.45L578.67-4.45Q582.07-4.45 585.47-5.85L585.47-5.85 585.97-0.95Q584.77-0.4 582.57 0.15 580.37 0.7 577.57 0.7L577.57 0.7Q574.77 0.7 572.77-0.1 570.77-0.9 569.49-2.3 568.22-3.7 567.62-5.53 567.02-7.35 567.02-9.45ZM581.57-21.85L581.57-21.85Q580.07-21.85 578.72-21.25 577.37-20.65 576.32-19.6 575.27-18.55 574.49-17.13 573.72-15.7 573.37-14.05L573.37-14.05Q579.37-14.25 582.09-15.5 584.82-16.75 584.82-19.25L584.82-19.25Q584.82-20.25 584.09-21.05 583.37-21.85 581.57-21.85ZM642.93-34.65L669.88-34.65 668.58-29.35 658.28-29.35 651.23 0 644.93 0 651.98-29.35 641.68-29.35 642.93-34.65ZM688.86 0L682.81 0 691.86-37.8 698.16-38.8 695.06-25.95Q696.06-26.2 697.23-26.43 698.41-26.65 699.56-26.65L699.56-26.65Q701.76-26.65 703.33-26.03 704.91-25.4 705.93-24.3 706.96-23.2 707.43-21.65 707.91-20.1 707.91-18.3L707.91-18.3Q707.91-16.15 707.31-13.75L707.31-13.75 704.01 0 697.96 0 701.11-13.1Q701.36-14.25 701.61-15.45 701.86-16.65 701.86-17.7L701.86-17.7Q701.86-19.35 700.98-20.48 700.11-21.6 697.66-21.6L697.66-21.6Q696.66-21.6 695.66-21.43 694.66-21.25 693.86-21L693.86-21 688.86 0ZM739.89-26.15L733.59 0 727.59 0 733.84-26.15 739.89-26.15ZM738.09-30.1L738.09-30.1Q736.74-30.1 735.74-30.9 734.74-31.7 734.74-33.3L734.74-33.3Q734.74-35.15 736.01-36.35 737.29-37.55 738.94-37.55L738.94-37.55Q740.29-37.55 741.31-36.73 742.34-35.9 742.34-34.3L742.34-34.3Q742.34-32.45 741.04-31.28 739.74-30.1 738.09-30.1ZM757.77 0L763.77-25.05Q765.77-25.65 768.34-26.18 770.92-26.7 773.97-26.7L773.97-26.7Q778.57-26.7 780.72-24.45 782.87-22.2 782.87-18.4L782.87-18.4Q782.87-17.35 782.69-16.18 782.52-15 782.27-13.75L782.27-13.75 778.97 0 772.92 0 776.02-13.1Q776.27-14.2 776.52-15.35 776.77-16.5 776.82-17.55L776.82-17.55Q776.87-19.3 775.99-20.45 775.12-21.6 772.57-21.6L772.57-21.6Q770.42-21.6 768.87-21.15L768.87-21.15 763.82 0 757.77 0ZM809.9 4.3L809.9 4.3Q813.6 4.3 815.47 2.6 817.35 0.9 818-2.05L818-2.05 818.15-2.75Q817.15-2.25 815.75-1.83 814.35-1.4 812.8-1.4L812.8-1.4Q808.4-1.4 806.27-3.78 804.15-6.15 804.15-10.1L804.15-10.1Q804.15-13.7 805.4-16.75 806.65-19.8 808.92-22.03 811.2-24.25 814.4-25.5 817.6-26.75 821.5-26.75L821.5-26.75Q823.4-26.75 825.57-26.33 827.75-25.9 829.5-24.95L829.5-24.95 824.2-2.75Q823.5 0.2 822.42 2.48 821.35 4.75 819.6 6.28 817.85 7.8 815.27 8.6 812.7 9.4 809.05 9.4L809.05 9.4Q806.4 9.4 804.27 8.83 802.15 8.25 800.55 7.4L800.55 7.4 802.7 2.5Q804.05 3.3 805.82 3.8 807.6 4.3 809.9 4.3ZM814.3-6.3L814.3-6.3Q815.65-6.3 817.07-6.8 818.5-7.3 819.45-8.05L819.45-8.05 822.65-21.4Q821.5-21.65 820.4-21.65L820.4-21.65Q818.1-21.65 816.22-20.8 814.35-19.95 813-18.5 811.65-17.05 810.9-15.13 810.15-13.2 810.15-11L810.15-11Q810.15-8.8 811.1-7.55 812.05-6.3 814.3-6.3ZM855.18-4.25L855.18-4.25Q857.58-4.25 858.98-5.03 860.38-5.8 860.38-7.4L860.38-7.4Q860.38-8.7 859.48-9.47 858.58-10.25 856.33-11.3L856.33-11.3Q855.13-11.85 854.1-12.45 853.08-13.05 852.33-13.85 851.58-14.65 851.13-15.73 850.68-16.8 850.68-18.3L850.68-18.3Q850.68-22.2 853.53-24.5 856.38-26.8 861.78-26.8L861.78-26.8Q864.28-26.8 866.25-26.28 868.23-25.75 869.23-25.2L869.23-25.2 867.08-20.5Q866.23-21 864.63-21.48 863.03-21.95 861.28-21.95L861.28-21.95Q860.43-21.95 859.6-21.8 858.78-21.65 858.13-21.3 857.48-20.95 857.05-20.33 856.63-19.7 856.63-18.8L856.63-18.8Q856.63-17.65 857.55-16.93 858.48-16.2 860.23-15.4L860.23-15.4Q861.88-14.65 863.03-13.95 864.18-13.25 864.93-12.38 865.68-11.5 866.03-10.43 866.38-9.35 866.38-7.85L866.38-7.85Q866.38-6 865.63-4.42 864.88-2.85 863.45-1.73 862.03-0.6 859.93 0.05 857.83 0.7 855.13 0.7L855.13 0.7Q853.28 0.7 851.8 0.45 850.33 0.2 849.23-0.13 848.13-0.45 847.38-0.8 846.63-1.15 846.23-1.4L846.23-1.4 848.38-6.15Q848.73-5.95 849.4-5.63 850.08-5.3 850.95-5 851.83-4.7 852.9-4.48 853.98-4.25 855.18-4.25ZM916.79-11.55L921.89-33.05 928.19-34.05 926.29-26.15 934.84-26.15 933.64-21.15 925.09-21.15 922.59-10.8Q922.34-9.7 922.24-8.97 922.14-8.25 922.14-7.65L922.14-7.65Q922.14-7.05 922.26-6.48 922.39-5.9 922.76-5.48 923.14-5.05 923.86-4.78 924.59-4.5 925.84-4.5L925.84-4.5Q927.19-4.5 928.44-4.85 929.69-5.2 930.64-5.6L930.64-5.6 931.09-0.75Q929.94-0.25 928.19 0.2 926.44 0.65 924.09 0.65L924.09 0.65Q919.79 0.65 917.94-1.23 916.09-3.1 916.09-6.35L916.09-6.35Q916.09-7.55 916.26-8.83 916.44-10.1 916.79-11.55L916.79-11.55ZM957.37 0L951.32 0 960.37-37.8 966.67-38.8 963.57-25.95Q964.57-26.2 965.74-26.43 966.92-26.65 968.07-26.65L968.07-26.65Q970.27-26.65 971.84-26.03 973.42-25.4 974.44-24.3 975.47-23.2 975.94-21.65 976.42-20.1 976.42-18.3L976.42-18.3Q976.42-16.15 975.82-13.75L975.82-13.75 972.52 0 966.47 0 969.62-13.1Q969.87-14.25 970.12-15.45 970.37-16.65 970.37-17.7L970.37-17.7Q970.37-19.35 969.49-20.48 968.62-21.6 966.17-21.6L966.17-21.6Q965.17-21.6 964.17-21.43 963.17-21.25 962.37-21L962.37-21 957.37 0ZM1022.55-25.1L1018.95-10.15Q1018.8-9.6 1018.65-8.35 1018.5-7.1 1018.5-6L1018.5-6Q1018.5-4.55 1018.75-3.18 1019-1.8 1019.55-0.4L1019.55-0.4 1014.15 0.4Q1013.55-0.8 1013.2-2.15L1013.2-2.15Q1011.95-1.05 1010.12-0.18 1008.3 0.7 1006 0.7L1006 0.7Q1003.65 0.7 1001.97-0.08 1000.3-0.85 999.25-2.23 998.2-3.6 997.7-5.45 997.2-7.3 997.2-9.45L997.2-9.45Q997.2-13.1 998.5-16.25 999.8-19.4 1002.12-21.7 1004.45-24 1007.65-25.33 1010.85-26.65 1014.65-26.65L1014.65-26.65Q1016.6-26.65 1018.57-26.33 1020.55-26 1022.55-25.1L1022.55-25.1ZM1013.2-11.65L1015.65-21.45Q1014.7-21.65 1013.5-21.65L1013.5-21.65Q1011.25-21.65 1009.35-20.68 1007.45-19.7 1006.07-18.07 1004.7-16.45 1003.95-14.35 1003.2-12.25 1003.2-9.95L1003.2-9.95Q1003.2-8.8 1003.4-7.8 1003.6-6.8 1004.07-6.05 1004.55-5.3 1005.35-4.85 1006.15-4.4 1007.4-4.4L1007.4-4.4Q1009-4.4 1010.22-5.08 1011.45-5.75 1012.5-6.9L1012.5-6.9Q1012.55-8.2 1012.72-9.35 1012.9-10.5 1013.2-11.65L1013.2-11.65ZM1042.78-11.55L1047.88-33.05 1054.18-34.05 1052.28-26.15 1060.83-26.15 1059.63-21.15 1051.08-21.15 1048.58-10.8Q1048.33-9.7 1048.23-8.97 1048.13-8.25 1048.13-7.65L1048.13-7.65Q1048.13-7.05 1048.25-6.48 1048.38-5.9 1048.75-5.48 1049.13-5.05 1049.85-4.78 1050.58-4.5 1051.83-4.5L1051.83-4.5Q1053.18-4.5 1054.43-4.85 1055.68-5.2 1056.63-5.6L1056.63-5.6 1057.08-0.75Q1055.93-0.25 1054.18 0.2 1052.43 0.65 1050.08 0.65L1050.08 0.65Q1045.78 0.65 1043.93-1.23 1042.08-3.1 1042.08-6.35L1042.08-6.35Q1042.08-7.55 1042.25-8.83 1042.43-10.1 1042.78-11.55L1042.78-11.55ZM1128.74 0L1106.04 0 1114.34-34.65 1135.84-34.65 1134.59-29.4 1119.34-29.4 1117.29-20.7 1130.79-20.7 1129.54-15.55 1116.09-15.55 1113.59-5.25 1129.99-5.25 1128.74 0ZM1151.02 0L1157.02-25.05Q1159.02-25.65 1161.59-26.18 1164.17-26.7 1167.22-26.7L1167.22-26.7Q1171.82-26.7 1173.97-24.45 1176.12-22.2 1176.12-18.4L1176.12-18.4Q1176.12-17.35 1175.94-16.18 1175.77-15 1175.52-13.75L1175.52-13.75 1172.22 0 1166.17 0 1169.27-13.1Q1169.52-14.2 1169.77-15.35 1170.02-16.5 1170.07-17.55L1170.07-17.55Q1170.12-19.3 1169.24-20.45 1168.37-21.6 1165.82-21.6L1165.82-21.6Q1163.67-21.6 1162.12-21.15L1162.12-21.15 1157.07 0 1151.02 0ZM1203.15 4.3L1203.15 4.3Q1206.85 4.3 1208.72 2.6 1210.6 0.9 1211.25-2.05L1211.25-2.05 1211.4-2.75Q1210.4-2.25 1209-1.83 1207.6-1.4 1206.05-1.4L1206.05-1.4Q1201.65-1.4 1199.52-3.78 1197.4-6.15 1197.4-10.1L1197.4-10.1Q1197.4-13.7 1198.65-16.75 1199.9-19.8 1202.17-22.03 1204.45-24.25 1207.65-25.5 1210.85-26.75 1214.75-26.75L1214.75-26.75Q1216.65-26.75 1218.82-26.33 1221-25.9 1222.75-24.95L1222.75-24.95 1217.45-2.75Q1216.75 0.2 1215.67 2.48 1214.6 4.75 1212.85 6.28 1211.1 7.8 1208.52 8.6 1205.95 9.4 1202.3 9.4L1202.3 9.4Q1199.65 9.4 1197.52 8.83 1195.4 8.25 1193.8 7.4L1193.8 7.4 1195.95 2.5Q1197.3 3.3 1199.07 3.8 1200.85 4.3 1203.15 4.3ZM1207.55-6.3L1207.55-6.3Q1208.9-6.3 1210.32-6.8 1211.75-7.3 1212.7-8.05L1212.7-8.05 1215.9-21.4Q1214.75-21.65 1213.65-21.65L1213.65-21.65Q1211.35-21.65 1209.47-20.8 1207.6-19.95 1206.25-18.5 1204.9-17.05 1204.15-15.13 1203.4-13.2 1203.4-11L1203.4-11Q1203.4-8.8 1204.35-7.55 1205.3-6.3 1207.55-6.3ZM1253.18-26.15L1246.88 0 1240.88 0 1247.13-26.15 1253.18-26.15ZM1251.38-30.1L1251.38-30.1Q1250.03-30.1 1249.03-30.9 1248.03-31.7 1248.03-33.3L1248.03-33.3Q1248.03-35.15 1249.3-36.35 1250.58-37.55 1252.23-37.55L1252.23-37.55Q1253.58-37.55 1254.6-36.73 1255.63-35.9 1255.63-34.3L1255.63-34.3Q1255.63-32.45 1254.33-31.28 1253.03-30.1 1251.38-30.1ZM1271.06 0L1277.06-25.05Q1279.06-25.65 1281.63-26.18 1284.21-26.7 1287.26-26.7L1287.26-26.7Q1291.86-26.7 1294.01-24.45 1296.16-22.2 1296.16-18.4L1296.16-18.4Q1296.16-17.35 1295.98-16.18 1295.81-15 1295.56-13.75L1295.56-13.75 1292.26 0 1286.21 0 1289.31-13.1Q1289.56-14.2 1289.81-15.35 1290.06-16.5 1290.11-17.55L1290.11-17.55Q1290.16-19.3 1289.28-20.45 1288.41-21.6 1285.86-21.6L1285.86-21.6Q1283.71-21.6 1282.16-21.15L1282.16-21.15 1277.11 0 1271.06 0ZM1317.04-9.45L1317.04-9.45Q1317.04-12.8 1318.11-15.93 1319.19-19.05 1321.21-21.48 1323.24-23.9 1326.09-25.35 1328.94-26.8 1332.49-26.8L1332.49-26.8Q1336.29-26.8 1338.39-24.85 1340.49-22.9 1340.49-19.85L1340.49-19.85Q1340.49-16.7 1338.94-14.75 1337.39-12.8 1334.91-11.7 1332.44-10.6 1329.31-10.2 1326.19-9.8 1322.99-9.7L1322.99-9.7Q1322.94-9.6 1322.94-9.5L1322.94-9.5 1322.94-9Q1322.94-4.45 1328.69-4.45L1328.69-4.45Q1332.09-4.45 1335.49-5.85L1335.49-5.85 1335.99-0.95Q1334.79-0.4 1332.59 0.15 1330.39 0.7 1327.59 0.7L1327.59 0.7Q1324.79 0.7 1322.79-0.1 1320.79-0.9 1319.51-2.3 1318.24-3.7 1317.64-5.53 1317.04-7.35 1317.04-9.45ZM1331.59-21.85L1331.59-21.85Q1330.09-21.85 1328.74-21.25 1327.39-20.65 1326.34-19.6 1325.29-18.55 1324.51-17.13 1323.74-15.7 1323.39-14.05L1323.39-14.05Q1329.39-14.25 1332.11-15.5 1334.84-16.75 1334.84-19.25L1334.84-19.25Q1334.84-20.25 1334.11-21.05 1333.39-21.85 1331.59-21.85ZM1359.82-9.45L1359.82-9.45Q1359.82-12.8 1360.89-15.93 1361.97-19.05 1363.99-21.48 1366.02-23.9 1368.87-25.35 1371.72-26.8 1375.27-26.8L1375.27-26.8Q1379.07-26.8 1381.17-24.85 1383.27-22.9 1383.27-19.85L1383.27-19.85Q1383.27-16.7 1381.72-14.75 1380.17-12.8 1377.69-11.7 1375.22-10.6 1372.09-10.2 1368.97-9.8 1365.77-9.7L1365.77-9.7Q1365.72-9.6 1365.72-9.5L1365.72-9.5 1365.72-9Q1365.72-4.45 1371.47-4.45L1371.47-4.45Q1374.87-4.45 1378.27-5.85L1378.27-5.85 1378.77-0.95Q1377.57-0.4 1375.37 0.15 1373.17 0.7 1370.37 0.7L1370.37 0.7Q1367.57 0.7 1365.57-0.1 1363.57-0.9 1362.29-2.3 1361.02-3.7 1360.42-5.53 1359.82-7.35 1359.82-9.45ZM1374.37-21.85L1374.37-21.85Q1372.87-21.85 1371.52-21.25 1370.17-20.65 1369.12-19.6 1368.07-18.55 1367.29-17.13 1366.52-15.7 1366.17-14.05L1366.17-14.05Q1372.17-14.25 1374.89-15.5 1377.62-16.75 1377.62-19.25L1377.62-19.25Q1377.62-20.25 1376.89-21.05 1376.17-21.85 1374.37-21.85ZM1422.5-25.85L1420.75-20.8Q1419.75-21.15 1418.6-21.35 1417.45-21.55 1415.9-21.55L1415.9-21.55Q1415.05-21.55 1414.1-21.43 1413.15-21.3 1412.5-21.1L1412.5-21.1 1407.45 0 1401.4 0 1407.4-24.95Q1409.5-25.65 1411.95-26.18 1414.4-26.7 1417.25-26.7L1417.25-26.7Q1417.85-26.7 1418.6-26.63 1419.35-26.55 1420.07-26.45 1420.8-26.35 1421.42-26.2 1422.05-26.05 1422.5-25.85L1422.5-25.85ZM1445.53-4.25L1445.53-4.25Q1447.93-4.25 1449.33-5.03 1450.73-5.8 1450.73-7.4L1450.73-7.4Q1450.73-8.7 1449.83-9.47 1448.93-10.25 1446.68-11.3L1446.68-11.3Q1445.48-11.85 1444.45-12.45 1443.43-13.05 1442.68-13.85 1441.93-14.65 1441.48-15.73 1441.03-16.8 1441.03-18.3L1441.03-18.3Q1441.03-22.2 1443.88-24.5 1446.73-26.8 1452.13-26.8L1452.13-26.8Q1454.63-26.8 1456.6-26.28 1458.58-25.75 1459.58-25.2L1459.58-25.2 1457.43-20.5Q1456.58-21 1454.98-21.48 1453.38-21.95 1451.63-21.95L1451.63-21.95Q1450.78-21.95 1449.95-21.8 1449.13-21.65 1448.48-21.3 1447.83-20.95 1447.4-20.33 1446.98-19.7 1446.98-18.8L1446.98-18.8Q1446.98-17.65 1447.9-16.93 1448.83-16.2 1450.58-15.4L1450.58-15.4Q1452.23-14.65 1453.38-13.95 1454.53-13.25 1455.28-12.38 1456.03-11.5 1456.38-10.43 1456.73-9.35 1456.73-7.85L1456.73-7.85Q1456.73-6 1455.98-4.42 1455.23-2.85 1453.8-1.73 1452.38-0.6 1450.28 0.05 1448.18 0.7 1445.48 0.7L1445.48 0.7Q1443.63 0.7 1442.15 0.45 1440.68 0.2 1439.58-0.13 1438.48-0.45 1437.73-0.8 1436.98-1.15 1436.58-1.4L1436.58-1.4 1438.73-6.15Q1439.08-5.95 1439.75-5.63 1440.43-5.3 1441.3-5 1442.18-4.7 1443.25-4.48 1444.33-4.25 1445.53-4.25ZM1477.66-6.65L1484.01-6.65Q1483.71-2.65 1481.76 1.13 1479.81 4.9 1477.16 8.05L1477.16 8.05 1472.86 6.7Q1474.81 3.65 1476.11 0.15 1477.41-3.35 1477.66-6.65L1477.66-6.65ZM1557.97 0L1535.27 0 1543.57-34.65 1565.07-34.65 1563.82-29.4 1548.57-29.4 1546.52-20.7 1560.02-20.7 1558.77-15.55 1545.32-15.55 1542.82-5.25 1559.22-5.25 1557.97 0ZM1580.25 0L1586.25-25.05Q1588.25-25.65 1590.82-26.18 1593.4-26.7 1596.45-26.7L1596.45-26.7Q1601.05-26.7 1603.2-24.45 1605.35-22.2 1605.35-18.4L1605.35-18.4Q1605.35-17.35 1605.17-16.18 1605-15 1604.75-13.75L1604.75-13.75 1601.45 0 1595.4 0 1598.5-13.1Q1598.75-14.2 1599-15.35 1599.25-16.5 1599.3-17.55L1599.3-17.55Q1599.35-19.3 1598.47-20.45 1597.6-21.6 1595.05-21.6L1595.05-21.6Q1592.9-21.6 1591.35-21.15L1591.35-21.15 1586.3 0 1580.25 0ZM1632.38 4.3L1632.38 4.3Q1636.08 4.3 1637.95 2.6 1639.83 0.9 1640.48-2.05L1640.48-2.05 1640.63-2.75Q1639.63-2.25 1638.23-1.83 1636.83-1.4 1635.28-1.4L1635.28-1.4Q1630.88-1.4 1628.75-3.78 1626.63-6.15 1626.63-10.1L1626.63-10.1Q1626.63-13.7 1627.88-16.75 1629.13-19.8 1631.4-22.03 1633.68-24.25 1636.88-25.5 1640.08-26.75 1643.98-26.75L1643.98-26.75Q1645.88-26.75 1648.05-26.33 1650.23-25.9 1651.98-24.95L1651.98-24.95 1646.68-2.75Q1645.98 0.2 1644.9 2.48 1643.83 4.75 1642.08 6.28 1640.33 7.8 1637.75 8.6 1635.18 9.4 1631.53 9.4L1631.53 9.4Q1628.88 9.4 1626.75 8.83 1624.63 8.25 1623.03 7.4L1623.03 7.4 1625.18 2.5Q1626.53 3.3 1628.3 3.8 1630.08 4.3 1632.38 4.3ZM1636.78-6.3L1636.78-6.3Q1638.13-6.3 1639.55-6.8 1640.98-7.3 1641.93-8.05L1641.93-8.05 1645.13-21.4Q1643.98-21.65 1642.88-21.65L1642.88-21.65Q1640.58-21.65 1638.7-20.8 1636.83-19.95 1635.48-18.5 1634.13-17.05 1633.38-15.13 1632.63-13.2 1632.63-11L1632.63-11Q1632.63-8.8 1633.58-7.55 1634.53-6.3 1636.78-6.3ZM1682.4-26.15L1676.1 0 1670.1 0 1676.35-26.15 1682.4-26.15ZM1680.6-30.1L1680.6-30.1Q1679.25-30.1 1678.25-30.9 1677.25-31.7 1677.25-33.3L1677.25-33.3Q1677.25-35.15 1678.53-36.35 1679.8-37.55 1681.45-37.55L1681.45-37.55Q1682.8-37.55 1683.83-36.73 1684.85-35.9 1684.85-34.3L1684.85-34.3Q1684.85-32.45 1683.55-31.28 1682.25-30.1 1680.6-30.1ZM1700.28 0L1706.28-25.05Q1708.28-25.65 1710.86-26.18 1713.43-26.7 1716.48-26.7L1716.48-26.7Q1721.08-26.7 1723.23-24.45 1725.38-22.2 1725.38-18.4L1725.38-18.4Q1725.38-17.35 1725.21-16.18 1725.03-15 1724.78-13.75L1724.78-13.75 1721.48 0 1715.43 0 1718.53-13.1Q1718.78-14.2 1719.03-15.35 1719.28-16.5 1719.33-17.55L1719.33-17.55Q1719.38-19.3 1718.51-20.45 1717.63-21.6 1715.08-21.6L1715.08-21.6Q1712.93-21.6 1711.38-21.15L1711.38-21.15 1706.33 0 1700.28 0ZM1746.26-9.45L1746.26-9.45Q1746.26-12.8 1747.34-15.93 1748.41-19.05 1750.44-21.48 1752.46-23.9 1755.31-25.35 1758.16-26.8 1761.71-26.8L1761.71-26.8Q1765.51-26.8 1767.61-24.85 1769.71-22.9 1769.71-19.85L1769.71-19.85Q1769.71-16.7 1768.16-14.75 1766.61-12.8 1764.14-11.7 1761.66-10.6 1758.54-10.2 1755.41-9.8 1752.21-9.7L1752.21-9.7Q1752.16-9.6 1752.16-9.5L1752.16-9.5 1752.16-9Q1752.16-4.45 1757.91-4.45L1757.91-4.45Q1761.31-4.45 1764.71-5.85L1764.71-5.85 1765.21-0.95Q1764.01-0.4 1761.81 0.15 1759.61 0.7 1756.81 0.7L1756.81 0.7Q1754.01 0.7 1752.01-0.1 1750.01-0.9 1748.74-2.3 1747.46-3.7 1746.86-5.53 1746.26-7.35 1746.26-9.45ZM1760.81-21.85L1760.81-21.85Q1759.31-21.85 1757.96-21.25 1756.61-20.65 1755.56-19.6 1754.51-18.55 1753.74-17.13 1752.96-15.7 1752.61-14.05L1752.61-14.05Q1758.61-14.25 1761.34-15.5 1764.06-16.75 1764.06-19.25L1764.06-19.25Q1764.06-20.25 1763.34-21.05 1762.61-21.85 1760.81-21.85ZM1789.04-9.45L1789.04-9.45Q1789.04-12.8 1790.12-15.93 1791.19-19.05 1793.22-21.48 1795.24-23.9 1798.09-25.35 1800.94-26.8 1804.49-26.8L1804.49-26.8Q1808.29-26.8 1810.39-24.85 1812.49-22.9 1812.49-19.85L1812.49-19.85Q1812.49-16.7 1810.94-14.75 1809.39-12.8 1806.92-11.7 1804.44-10.6 1801.32-10.2 1798.19-9.8 1794.99-9.7L1794.99-9.7Q1794.94-9.6 1794.94-9.5L1794.94-9.5 1794.94-9Q1794.94-4.45 1800.69-4.45L1800.69-4.45Q1804.09-4.45 1807.49-5.85L1807.49-5.85 1807.99-0.95Q1806.79-0.4 1804.59 0.15 1802.39 0.7 1799.59 0.7L1799.59 0.7Q1796.79 0.7 1794.79-0.1 1792.79-0.9 1791.52-2.3 1790.24-3.7 1789.64-5.53 1789.04-7.35 1789.04-9.45ZM1803.59-21.85L1803.59-21.85Q1802.09-21.85 1800.74-21.25 1799.39-20.65 1798.34-19.6 1797.29-18.55 1796.52-17.13 1795.74-15.7 1795.39-14.05L1795.39-14.05Q1801.39-14.25 1804.12-15.5 1806.84-16.75 1806.84-19.25L1806.84-19.25Q1806.84-20.25 1806.12-21.05 1805.39-21.85 1803.59-21.85ZM1851.72-25.85L1849.97-20.8Q1848.97-21.15 1847.82-21.35 1846.67-21.55 1845.12-21.55L1845.12-21.55Q1844.27-21.55 1843.32-21.43 1842.37-21.3 1841.72-21.1L1841.72-21.1 1836.67 0 1830.62 0 1836.62-24.95Q1838.72-25.65 1841.17-26.18 1843.62-26.7 1846.47-26.7L1846.47-26.7Q1847.07-26.7 1847.82-26.63 1848.57-26.55 1849.3-26.45 1850.02-26.35 1850.65-26.2 1851.27-26.05 1851.72-25.85L1851.72-25.85Z" opacity="1" transform="matrix(1,0,0,1,0,0)" fill="#ffffff" class="slogan-text-1" data-fill-palette-color="secondary" id="text-1"></path></svg></g></svg></g></svg></g></svg></g><g><svg viewBox="0 0 51.76886498557904 47.6599171627545" height="47.6599171627545" width="51.76886498557904"><g><svg xmlns="http://www.w3.org/2000/svg" xmlns:xlink="http://www.w3.org/1999/xlink" version="1.1" x="0" y="0" viewBox="9.398 12.34 80.1930005690853 73.828" enable-background="new 0 0 100 100" xml:space="preserve" height="47.6599171627545" width="51.76886498557904" class="icon-icon-0" data-fill-palette-color="accent" id="icon-0"><g fill="#ffffff" data-fill-palette-color="accent"><path d="M55.894 49.046V51.038C55.894 53.547 57.036 54.713 59.222 54.713H61.979C64.585 54.713 66.358 56.832 66.358 59.088V61.406C66.358 63.915 65.221 65.427 62.563 65.427H59.367C56.571 65.427 55.114 64.149 55.114 61.538V59.38C55.114 57.321 53.635 55.97 51.833 55.97H47.074C44.694 55.97 44.115 57.578 44.115 59.38V63.629C44.115 65.881 45.466 66.653 47.203 66.653H50.134C53.444 66.653 55.034 68.105 55.034 70.423V72.024C55.034 74.658 56.532 75.656 58.915 75.656H63.83C66.263 75.656 67.452 74.372 67.452 72.177V70.381C67.452 67.358 69.128 66.393 72.345 66.393H75.729C77.595 66.393 78.454 65.235 78.454 63.691V57.451C78.454 55.393 77.296 54.428 75.045 54.428H70.991C68.572 54.428 66.403 52.599 66.403 49.218V47.226C66.403 44.717 65.261 43.551 63.074 43.551H60.317C57.711 43.551 55.938 41.433 55.938 39.177V36.859C55.938 34.35 57.076 32.838 59.734 32.838H62.929C65.725 32.838 67.183 34.116 67.183 36.727V38.885C67.183 40.944 68.662 42.294 70.464 42.294H75.222C77.602 42.294 78.181 40.686 78.181 38.885V34.636C78.181 32.385 76.83 31.613 75.093 31.613H72.162C68.852 31.613 67.262 30.161 67.262 27.843V26.327C67.262 23.694 65.837 22.61 63.454 22.61H58.466C56.033 22.61 54.844 23.894 54.844 26.09V27.885C54.844 30.908 53.168 31.873 49.951 31.873H46.566C44.701 31.873 43.842 33.031 43.842 34.575V40.815C43.842 42.874 44.999 43.839 47.252 43.839H51.304C53.725 43.836 55.894 45.665 55.894 49.046" fill="#ffffff" data-fill-palette-color="accent"></path><path d="M86.07 54.482A3.52 3.52 0 0 0 89.591 50.961V48.273A3.52 3.52 0 0 0 86.07 44.751H83.382A3.52 3.52 0 0 0 79.861 48.273V50.961A3.52 3.52 0 0 0 83.382 54.482z" fill="#ffffff" data-fill-palette-color="accent"></path><path d="M36.547 31.871H39.555C41.806 31.871 42.964 30.906 42.964 28.848V26.874C43.077 23.68 45.188 22.216 47.542 22.216H50.55C52.803 22.216 53.96 21.251 53.96 19.193V15.042C53.96 13.498 53.102 12.34 51.236 12.34H45.541C43.695 12.34 42.91 13.195 42.91 15.122V17.556C42.91 19.751 41.229 21.809 38.739 21.92H34.545C32.7 21.92 31.914 22.775 31.914 24.702V27.21C31.914 29.466 30.143 31.585 27.535 31.585H24.778C22.59 31.585 21.449 32.75 21.449 35.259V38.33C21.449 41.711 19.281 43.54 16.861 43.54H12.807C10.556 43.54 9.398 44.505 9.398 46.563V53.329C9.398 55.388 10.556 56.352 12.807 56.352H16.861C19.281 56.352 21.449 57.401 21.449 60.783V63.195C21.449 65.704 22.591 66.869 24.778 66.869H27.535C30.142 66.869 31.914 68.988 31.914 71.244V73.783C31.914 75.71 32.7 76.565 34.545 76.565H38.758L38.737 76.589C41.228 76.699 42.908 78.758 42.908 80.953V83.386C42.908 85.313 43.693 86.168 45.539 86.168H51.233C53.099 86.168 53.958 85.01 53.958 83.466V79.315C53.958 77.256 52.8 76.291 50.549 76.291H47.54C45.192 76.291 43.087 74.834 42.964 71.658V69.605C42.964 67.546 41.806 66.582 39.555 66.582H36.547C34.126 66.582 31.957 64.754 31.957 61.373V59.74C31.957 57.231 33.1 56.066 35.287 56.066H38.043C40.65 56.066 42.423 53.947 42.423 51.691V48.2C42.423 45.944 40.651 43.825 38.043 43.825H35.287C33.099 43.825 31.957 42.659 31.957 40.151V36.791C31.957 33.411 34.126 31.871 36.547 31.871" fill="#ffffff" data-fill-palette-color="accent"></path></g></svg></g></svg></g></svg></g><defs></defs></svg><rect width="395.52" height="41.70458148471706" fill="none" stroke="none" visibility="hidden"></rect></g></svg></g></svg>