<svg xmlns="http://www.w3.org/2000/svg" version="1.1" xmlns:xlink="http://www.w3.org/1999/xlink" width="2000" height="207" viewBox="0 0 2000 207"><g transform="matrix(1,0,0,1,-1.2121212121212466,-1.8312909022908883)"><svg viewBox="0 0 396 41" data-background-color="#121212" preserveAspectRatio="xMidYMid meet" height="207" width="2000" xmlns="http://www.w3.org/2000/svg" xmlns:xlink="http://www.w3.org/1999/xlink"><g id="tight-bounds" transform="matrix(1,0,0,1,0.2400000000000091,0.36271945407693806)"><svg viewBox="0 0 395.52 40.2745610918461" height="40.2745610918461" width="395.52"><g><svg viewBox="0 0 443.9559439321133 45.20664134805345" height="40.2745610918461" width="395.52"><g transform="matrix(1,0,0,1,48.43594393211332,14.42556355607205)"><svg viewBox="0 0 395.52 16.355514235909354" height="16.355514235909354" width="395.52"><g id="textblocktransform"><svg viewBox="0 0 395.52 16.355514235909354" height="16.355514235909354" width="395.52" id="textblock"><g><svg viewBox="0 0 395.52 16.355514235909354" height="16.355514235909354" width="395.52"><g transform="matrix(1,0,0,1,0,0)"><svg width="395.52" viewBox="-1.35 -39.35 1033.52 43.7" height="16.355514235909354" data-palette-color="#ffffff"><path d="M17.05-9.45L17.05-35 22.05-35 22.05-9.65Q22.05-6.65 20.75-4.4 19.45-2.15 17.2-0.9 14.95 0.35 12 0.35L12 0.35Q8.35 0.35 5.95-1.43 3.55-3.2 2.65-6.4L2.65-6.4 6.9-7.85Q7.25-6.7 7.9-5.8 8.55-4.9 9.58-4.38 10.6-3.85 12-3.85L12-3.85Q13.7-3.85 14.8-4.65 15.9-5.45 16.48-6.73 17.05-8 17.05-9.45L17.05-9.45ZM45.45 0.35L45.45 0.35Q41.75 0.35 38.52-0.95 35.3-2.25 32.9-4.63 30.5-7 29.15-10.28 27.8-13.55 27.8-17.5L27.8-17.5Q27.8-21.45 29.15-24.7 30.5-27.95 32.9-30.35 35.3-32.75 38.52-34.05 41.75-35.35 45.45-35.35L45.45-35.35Q49.1-35.35 52.3-34.05 55.5-32.75 57.9-30.35 60.3-27.95 61.65-24.7 63-21.45 63-17.5L63-17.5Q63-13.55 61.65-10.28 60.3-7 57.9-4.63 55.5-2.25 52.3-0.95 49.1 0.35 45.45 0.35ZM45.45-3.95L45.45-3.95Q49-3.95 51.82-5.6 54.65-7.25 56.3-10.3 57.95-13.35 57.95-17.5L57.95-17.5Q57.95-21.7 56.3-24.73 54.65-27.75 51.82-29.4 49-31.05 45.45-31.05L45.45-31.05Q41.85-31.05 39-29.4 36.15-27.75 34.52-24.73 32.9-21.7 32.9-17.5L32.9-17.5Q32.9-13.35 34.52-10.3 36.15-7.25 39-5.6 41.85-3.95 45.45-3.95ZM92.3-35L92.3-30.8 73.9-30.8 73.9-19.85 87.7-19.85 87.7-15.65 73.9-15.65 73.9-4.2 92.3-4.2 92.3 0 68.9 0 68.9-35 92.3-35ZM118.19-25.3L118.19 0 113.19 0 113.19-35 118.69-35 131.14-6.65 143.54-35 148.99-35 148.99 0 144.04 0 144.04-25.3 132.94 0 129.29 0 118.19-25.3ZM180.29-35L180.29-30.8 161.89-30.8 161.89-19.85 175.69-19.85 175.69-15.65 161.89-15.65 161.89-4.2 180.29-4.2 180.29 0 156.89 0 156.89-35 180.29-35ZM209.74-35L214.74-35 214.74 0 209.64 0 192.19-27.1 192.19 0 187.19 0 187.19-35 192.29-35 209.74-8 209.74-35ZM222.63-35L234.63-35Q240.33-35 244.46-32.85 248.58-30.7 250.86-26.75 253.13-22.8 253.13-17.35L253.13-17.35Q253.13-11.95 250.86-8.08 248.58-4.2 244.46-2.1 240.33 0 234.63 0L234.63 0 222.63 0 222.63-35ZM227.63-4.2L234.63-4.2Q241.23-4.2 244.66-7.68 248.08-11.15 248.08-17.35L248.08-17.35Q248.08-23.65 244.66-27.23 241.23-30.8 234.63-30.8L234.63-30.8 227.63-30.8 227.63-4.2ZM282.48-35L282.48-30.8 264.08-30.8 264.08-19.85 277.88-19.85 277.88-15.65 264.08-15.65 264.08-4.2 282.48-4.2 282.48 0 259.08 0 259.08-35 282.48-35ZM312.58-35L312.58-31.2 293.93-4.2 312.68-4.2 312.68 0 288.08 0 288.08-3.8 306.68-30.8 288.18-30.8 288.18-35 312.58-35ZM318.23-11.8L318.23-16 338.43-16 338.43-11.8 318.23-11.8ZM345.37 0L345.37-35 350.37-35 350.37-19.85 367.97-19.85 367.97-35 372.92-35 372.92 0 367.97 0 367.97-15.65 350.37-15.65 350.37 0 345.37 0ZM380.67-12.85L380.67-35 385.67-35 385.67-12.75Q385.67-9.75 386.82-7.78 387.97-5.8 389.97-4.88 391.97-3.95 394.47-3.95L394.47-3.95Q397.02-3.95 399-4.88 400.97-5.8 402.12-7.78 403.27-9.75 403.27-12.75L403.27-12.75 403.27-35 408.27-35 408.27-12.85Q408.27-9.45 407.15-6.98 406.02-4.5 404.05-2.88 402.07-1.25 399.6-0.45 397.12 0.35 394.42 0.35L394.42 0.35Q390.82 0.35 387.67-1.07 384.52-2.5 382.6-5.43 380.67-8.35 380.67-12.85L380.67-12.85ZM447.27-25.9L442.92-24.3Q441.02-27.85 438.09-29.45 435.17-31.05 431.72-31.05L431.72-31.05Q428.22-31.05 425.32-29.35 422.42-27.65 420.74-24.63 419.07-21.6 419.07-17.5L419.07-17.5Q419.07-13.45 420.72-10.4 422.37-7.35 425.24-5.65 428.12-3.95 431.67-3.95L431.67-3.95Q434.22-3.95 436.47-4.85 438.72-5.75 440.39-7.35 442.07-8.95 443.02-11.15L443.02-11.15 443.02-14.95 432.02-14.95 432.02-19.05 448.07-19.05 448.07-10.9Q446.87-7.7 444.49-5.15 442.12-2.6 438.84-1.13 435.57 0.35 431.67 0.35L431.67 0.35Q427.97 0.35 424.74-0.95 421.52-2.25 419.12-4.63 416.72-7 415.37-10.28 414.02-13.55 414.02-17.5L414.02-17.5Q414.02-21.4 415.37-24.68 416.72-27.95 419.12-30.35 421.52-32.75 424.74-34.05 427.97-35.35 431.67-35.35L431.67-35.35Q435.02-35.35 438.07-34.25 441.12-33.15 443.52-31.05 445.92-28.95 447.27-25.9L447.27-25.9ZM454.37 0L454.37-35 459.37-35 459.37-19.85 476.97-19.85 476.97-35 481.92-35 481.92 0 476.97 0 476.97-15.65 459.37-15.65 459.37 0 454.37 0ZM513.26-35L513.26-30.8 494.86-30.8 494.86-19.85 508.66-19.85 508.66-15.65 494.86-15.65 494.86-4.2 513.26-4.2 513.26 0 489.86 0 489.86-35 513.26-35ZM518.61-7.55L523.16-9.25Q523.46-7.85 524.38-6.65 525.31-5.45 526.91-4.7 528.51-3.95 530.86-3.95L530.86-3.95Q534.36-3.95 536.03-5.58 537.71-7.2 537.71-9.4L537.71-9.4Q537.71-11.2 536.68-12.38 535.66-13.55 533.88-14.38 532.11-15.2 529.81-15.85L529.81-15.85Q527.81-16.45 525.88-17.13 523.96-17.8 522.41-18.82 520.86-19.85 519.96-21.48 519.06-23.1 519.06-25.55L519.06-25.55Q519.06-28.6 520.51-30.8 521.96-33 524.58-34.18 527.21-35.35 530.66-35.35L530.66-35.35Q533.56-35.35 535.86-34.52 538.16-33.7 539.73-32.18 541.31-30.65 542.06-28.5L542.06-28.5 537.51-26.85Q537.21-27.95 536.26-28.93 535.31-29.9 533.86-30.5 532.41-31.1 530.61-31.1L530.61-31.1Q528.76-31.15 527.28-30.53 525.81-29.9 524.93-28.75 524.06-27.6 524.06-26L524.06-26Q524.06-24.25 525.06-23.25 526.06-22.25 527.73-21.6 529.41-20.95 531.41-20.35L531.41-20.35Q533.51-19.7 535.51-18.95 537.51-18.2 539.13-17.05 540.76-15.9 541.76-14.18 542.76-12.45 542.76-9.85L542.76-9.85Q542.76-7.05 541.46-4.75 540.16-2.45 537.53-1.05 534.91 0.35 530.96 0.35L530.96 0.35Q527.71 0.35 525.11-0.65 522.51-1.65 520.83-3.43 519.16-5.2 518.61-7.55L518.61-7.55ZM551.51 0.3L551.51 0.3Q550.16 0.3 549.21-0.65 548.26-1.6 548.26-2.95L548.26-2.95Q548.26-4.35 549.21-5.3 550.16-6.25 551.51-6.25L551.51-6.25Q552.86-6.25 553.81-5.3 554.76-4.35 554.76-2.95L554.76-2.95Q554.76-1.6 553.81-0.65 552.86 0.3 551.51 0.3ZM551.51-20.95L551.51-20.95Q550.16-20.95 549.21-21.9 548.26-22.85 548.26-24.2L548.26-24.2Q548.26-25.6 549.21-26.55 550.16-27.5 551.51-27.5L551.51-27.5Q552.86-27.5 553.81-26.55 554.76-25.6 554.76-24.2L554.76-24.2Q554.76-22.85 553.81-21.9 552.86-20.95 551.51-20.95ZM575.85-35L587.85-35Q593.55-35 597.68-32.85 601.8-30.7 604.08-26.75 606.35-22.8 606.35-17.35L606.35-17.35Q606.35-11.95 604.08-8.08 601.8-4.2 597.68-2.1 593.55 0 587.85 0L587.85 0 575.85 0 575.85-35ZM580.85-4.2L587.85-4.2Q594.45-4.2 597.88-7.68 601.3-11.15 601.3-17.35L601.3-17.35Q601.3-23.65 597.88-27.23 594.45-30.8 587.85-30.8L587.85-30.8 580.85-30.8 580.85-4.2ZM635.7-35L635.7-30.8 617.3-30.8 617.3-19.85 631.1-19.85 631.1-15.65 617.3-15.65 617.3-4.2 635.7-4.2 635.7 0 612.3 0 612.3-35 635.7-35ZM655.95-5.15L666.7-35 671.95-35 658.8 0 653.05 0 639.95-35 645.25-35 655.95-5.15ZM691.79 0.35L691.79 0.35Q688.09 0.35 684.87-0.95 681.64-2.25 679.24-4.63 676.84-7 675.49-10.28 674.14-13.55 674.14-17.5L674.14-17.5Q674.14-21.45 675.49-24.7 676.84-27.95 679.24-30.35 681.64-32.75 684.87-34.05 688.09-35.35 691.79-35.35L691.79-35.35Q695.44-35.35 698.64-34.05 701.84-32.75 704.24-30.35 706.64-27.95 707.99-24.7 709.34-21.45 709.34-17.5L709.34-17.5Q709.34-13.55 707.99-10.28 706.64-7 704.24-4.63 701.84-2.25 698.64-0.95 695.44 0.35 691.79 0.35ZM691.79-3.95L691.79-3.95Q695.34-3.95 698.17-5.6 700.99-7.25 702.64-10.3 704.29-13.35 704.29-17.5L704.29-17.5Q704.29-21.7 702.64-24.73 700.99-27.75 698.17-29.4 695.34-31.05 691.79-31.05L691.79-31.05Q688.19-31.05 685.34-29.4 682.49-27.75 680.87-24.73 679.24-21.7 679.24-17.5L679.24-17.5Q679.24-13.35 680.87-10.3 682.49-7.25 685.34-5.6 688.19-3.95 691.79-3.95ZM720.24-18.35L728.29-18.35Q730.74-18.35 732.32-19.13 733.89-19.9 734.64-21.3 735.39-22.7 735.39-24.55L735.39-24.55Q735.39-27.5 733.69-29.15 731.99-30.8 728.29-30.8L728.29-30.8 720.24-30.8 720.24-18.35ZM740.39-24.55L740.39-24.55Q740.39-22.65 739.74-20.78 739.09-18.9 737.64-17.4 736.19-15.9 733.87-15.03 731.54-14.15 728.29-14.15L728.29-14.15 720.24-14.15 720.24 0 715.24 0 715.24-35 728.29-35Q732.39-35 735.07-33.58 737.74-32.15 739.07-29.78 740.39-27.4 740.39-24.55ZM744.79-7.55L749.34-9.25Q749.64-7.85 750.56-6.65 751.49-5.45 753.09-4.7 754.69-3.95 757.04-3.95L757.04-3.95Q760.54-3.95 762.21-5.58 763.89-7.2 763.89-9.4L763.89-9.4Q763.89-11.2 762.86-12.38 761.84-13.55 760.06-14.38 758.29-15.2 755.99-15.85L755.99-15.85Q753.99-16.45 752.06-17.13 750.14-17.8 748.59-18.82 747.04-19.85 746.14-21.48 745.24-23.1 745.24-25.55L745.24-25.55Q745.24-28.6 746.69-30.8 748.14-33 750.76-34.18 753.39-35.35 756.84-35.35L756.84-35.35Q759.74-35.35 762.04-34.52 764.34-33.7 765.91-32.18 767.49-30.65 768.24-28.5L768.24-28.5 763.69-26.85Q763.39-27.95 762.44-28.93 761.49-29.9 760.04-30.5 758.59-31.1 756.79-31.1L756.79-31.1Q754.94-31.15 753.46-30.53 751.99-29.9 751.11-28.75 750.24-27.6 750.24-26L750.24-26Q750.24-24.25 751.24-23.25 752.24-22.25 753.91-21.6 755.59-20.95 757.59-20.35L757.59-20.35Q759.69-19.7 761.69-18.95 763.69-18.2 765.31-17.05 766.94-15.9 767.94-14.18 768.94-12.45 768.94-9.85L768.94-9.85Q768.94-7.05 767.64-4.75 766.34-2.45 763.71-1.05 761.09 0.35 757.14 0.35L757.14 0.35Q753.89 0.35 751.29-0.65 748.69-1.65 747.01-3.43 745.34-5.2 744.79-7.55L744.79-7.55ZM812.63-35L812.63-30.8 794.23-30.8 794.23-19.85 808.03-19.85 808.03-15.65 794.23-15.65 794.23-4.2 812.63-4.2 812.63 0 789.23 0 789.23-35 812.63-35ZM842.08-35L847.08-35 847.08 0 841.98 0 824.53-27.1 824.53 0 819.53 0 819.53-35 824.63-35 842.08-8 842.08-35ZM886.28-25.9L881.93-24.3Q880.03-27.85 877.1-29.45 874.18-31.05 870.73-31.05L870.73-31.05Q867.23-31.05 864.33-29.35 861.43-27.65 859.75-24.63 858.08-21.6 858.08-17.5L858.08-17.5Q858.08-13.45 859.73-10.4 861.38-7.35 864.25-5.65 867.13-3.95 870.68-3.95L870.68-3.95Q873.23-3.95 875.48-4.85 877.73-5.75 879.4-7.35 881.08-8.95 882.03-11.15L882.03-11.15 882.03-14.95 871.03-14.95 871.03-19.05 887.08-19.05 887.08-10.9Q885.88-7.7 883.5-5.15 881.13-2.6 877.85-1.13 874.58 0.35 870.68 0.35L870.68 0.35Q866.98 0.35 863.75-0.95 860.53-2.25 858.13-4.63 855.73-7 854.38-10.28 853.03-13.55 853.03-17.5L853.03-17.5Q853.03-21.4 854.38-24.68 855.73-27.95 858.13-30.35 860.53-32.75 863.75-34.05 866.98-35.35 870.68-35.35L870.68-35.35Q874.03-35.35 877.08-34.25 880.13-33.15 882.53-31.05 884.93-28.95 886.28-25.9L886.28-25.9ZM893.38 0L893.38-35 898.38-35 898.38 0 893.38 0ZM928.82-35L933.82-35 933.82 0 928.72 0 911.27-27.1 911.27 0 906.27 0 906.27-35 911.37-35 928.82-8 928.82-35ZM965.12-35L965.12-30.8 946.72-30.8 946.72-19.85 960.52-19.85 960.52-15.65 946.72-15.65 946.72-4.2 965.12-4.2 965.12 0 941.72 0 941.72-35 965.12-35ZM995.42-35L995.42-30.8 977.02-30.8 977.02-19.85 990.82-19.85 990.82-15.65 977.02-15.65 977.02-4.2 995.42-4.2 995.42 0 972.02 0 972.02-35 995.42-35ZM1022.42-24.55L1022.42-24.55Q1022.42-27.4 1020.72-29.1 1019.02-30.8 1015.32-30.8L1015.32-30.8 1007.32-30.8 1007.32-18.35 1015.37-18.35Q1017.82-18.35 1019.37-19.13 1020.92-19.9 1021.67-21.3 1022.42-22.7 1022.42-24.55ZM1002.32-35L1015.32-35Q1019.47-35 1022.14-33.58 1024.82-32.15 1026.14-29.8 1027.47-27.45 1027.47-24.55L1027.47-24.55Q1027.47-22.65 1026.82-20.8 1026.17-18.95 1024.72-17.43 1023.27-15.9 1020.94-15.03 1018.62-14.15 1015.37-14.15L1015.37-14.15 1007.32-14.15 1007.32 0 1002.32 0 1002.32-35ZM1013.22-15.85L1018.52-15.85 1028.17 0 1022.52 0 1013.22-15.85Z" opacity="1" transform="matrix(1,0,0,1,0,0)" fill="#ffffff" class="wordmark-text-0" data-fill-palette-color="primary" id="text-0"></path></svg></g></svg></g></svg></g></svg></g><g><svg viewBox="0 0 45.207774041677524 45.20664134805345" height="45.20664134805345" width="45.207774041677524"><g><svg xmlns="http://www.w3.org/2000/svg" xmlns:xlink="http://www.w3.org/1999/xlink" version="1.1" x="0" y="0" viewBox="7.279893330341158 7.28 85.44214077711491 85.44" enable-background="new 0 0 100 100" xml:space="preserve" height="45.20664134805345" width="45.207774041677524" class="icon-icon-0" data-fill-palette-color="accent" id="icon-0"><path d="M91.24 67.483L74.39 58.951 90.34 50.705C90.848 50.441 90.848 50.017 90.337 49.76L72.349 40.653 91.261 30.875C92.18 30.398 92.725 29.552 92.72 28.611 92.714 27.672 92.159 26.834 91.24 26.37L54.356 7.698C53.673 7.353 52.96 7.28 52.481 7.28 52.041 7.28 51.383 7.342 50.746 7.64L8.818 27.269C7.864 27.716 7.289 28.552 7.28 29.504 7.271 30.457 7.832 31.304 8.779 31.77L28.918 41.673 9.667 50.685C9.153 50.926 9.151 51.328 9.662 51.579L26.756 59.985 8.818 68.381C7.863 68.828 7.288 69.664 7.28 70.616 7.272 71.569 7.833 72.416 8.779 72.88L48.333 92.332C48.984 92.653 49.66 92.72 50.112 92.72 50.588 92.72 51.298 92.647 51.984 92.295L91.263 71.987C92.182 71.51 92.727 70.664 92.722 69.723 92.714 68.785 92.16 67.946 91.24 67.483M52.375 11.289A1 1 0 0 1 52.481 11.28C52.542 11.28 52.587 11.288 52.563 11.274L86.872 28.642 50.215 47.6C50.205 47.602 50.167 47.61 50.112 47.61L50.098 47.631 13.353 29.562zM50.22 88.71A0.5 0.5 0 0 1 50.111 88.72L50.099 88.743 13.355 70.673 30.73 62.539 48.331 71.194C48.983 71.515 49.659 71.583 50.111 71.583 50.588 71.583 51.299 71.509 51.981 71.157L70.615 61.524 86.87 69.754z" fill="#00cc66" data-fill-palette-color="accent"></path></svg></g></svg></g></svg></g><defs></defs></svg><rect width="395.52" height="40.2745610918461" fill="none" stroke="none" visibility="hidden"></rect></g></svg></g></svg>