<svg xmlns="http://www.w3.org/2000/svg" version="1.1" xmlns:xlink="http://www.w3.org/1999/xlink" xmlns:svgjs="http://svgjs.dev/svgjs" width="2000" height="212" viewBox="0 0 2000 212"><g transform="matrix(1,0,0,1,-1.2121212121212466,-0.41944577300172625)"><svg viewBox="0 0 396 42" data-background-color="#121212" preserveAspectRatio="xMidYMid meet" height="212" width="2000" xmlns="http://www.w3.org/2000/svg" xmlns:xlink="http://www.w3.org/1999/xlink"><g id="tight-bounds" transform="matrix(1,0,0,1,0.2400000000000091,0.08309774748147447)"><svg viewBox="0 0 395.52 41.83380450503708" height="41.83380450503708" width="395.52"><g><svg viewBox="0 0 446.087042178047 47.18223633370411" height="41.83380450503708" width="395.52"><g transform="matrix(1,0,0,1,50.56704217804701,15.055981348164627)"><svg viewBox="0 0 395.52 17.070273637374857" height="17.070273637374857" width="395.52"><g id="textblocktransform"><svg viewBox="0 0 395.52 17.070273637374857" height="17.070273637374857" width="395.52" id="textblock"><g><svg viewBox="0 0 395.52 17.070273637374857" height="17.070273637374857" width="395.52"><g transform="matrix(1,0,0,1,0,0)"><svg width="395.52" viewBox="-2.5 -40.23 1012.29 44.66" height="17.070273637374857" data-palette-color="#ffffff"><path d="M17.82-35.83L17.82-12.38Q17.82-9.38 17.09-7 16.35-4.63 14.91-2.99 13.48-1.35 11.38-0.48 9.28 0.4 6.55 0.4L6.55 0.4Q4.13 0.4 1.5-0.3L1.5-0.3Q1.55-1.03 1.63-1.74 1.7-2.45 1.78-3.15L1.78-3.15Q1.83-3.58 2.09-3.84 2.35-4.1 2.88-4.1L2.88-4.1Q3.33-4.1 4.08-3.88 4.83-3.65 6.08-3.65L6.08-3.65Q7.73-3.65 9.01-4.15 10.3-4.65 11.19-5.7 12.08-6.75 12.54-8.39 13-10.03 13-12.28L13-12.28 13-35.83 17.82-35.83ZM59.82-17.9L59.82-17.9Q59.82-13.88 58.55-10.51 57.27-7.15 54.95-4.73 52.62-2.3 49.36-0.96 46.1 0.38 42.15 0.38L42.15 0.38Q38.2 0.38 34.95-0.96 31.7-2.3 29.37-4.73 27.05-7.15 25.77-10.51 24.5-13.88 24.5-17.9L24.5-17.9Q24.5-21.93 25.77-25.29 27.05-28.65 29.37-31.09 31.7-33.52 34.95-34.88 38.2-36.23 42.15-36.23L42.15-36.23Q46.1-36.23 49.36-34.88 52.62-33.52 54.95-31.09 57.27-28.65 58.55-25.29 59.82-21.93 59.82-17.9ZM54.85-17.9L54.85-17.9Q54.85-21.2 53.95-23.83 53.05-26.45 51.4-28.26 49.75-30.08 47.4-31.05 45.05-32.02 42.15-32.02L42.15-32.02Q39.27-32.02 36.92-31.05 34.57-30.08 32.91-28.26 31.25-26.45 30.35-23.83 29.45-21.2 29.45-17.9L29.45-17.9Q29.45-14.6 30.35-11.99 31.25-9.38 32.91-7.56 34.57-5.75 36.92-4.79 39.27-3.83 42.15-3.83L42.15-3.83Q45.05-3.83 47.4-4.79 49.75-5.75 51.4-7.56 53.05-9.38 53.95-11.99 54.85-14.6 54.85-17.9ZM66.45-35.83L88.52-35.83 88.52-31.88 71.32-31.88 71.32-19.98 85.25-19.98 85.25-16.18 71.32-16.18 71.32-3.95 88.52-3.95 88.52 0 66.45 0 66.45-35.83ZM122.77-12.95L122.77-12.95Q123.12-12.35 123.38-11.69 123.64-11.03 123.89-10.35L123.89-10.35Q124.14-11.05 124.42-11.69 124.69-12.33 125.04-12.98L125.04-12.98 137.17-35Q137.49-35.58 137.84-35.7 138.19-35.83 138.84-35.83L138.84-35.83 142.42-35.83 142.42 0 138.17 0 138.17-26.33Q138.17-26.85 138.19-27.45 138.22-28.05 138.27-28.68L138.27-28.68 125.99-6.28Q125.37-5.15 124.24-5.15L124.24-5.15 123.54-5.15Q122.42-5.15 121.79-6.28L121.79-6.28 109.24-28.75Q109.32-28.1 109.35-27.48 109.39-26.85 109.39-26.33L109.39-26.33 109.39 0 105.14 0 105.14-35.83 108.72-35.83Q109.37-35.83 109.72-35.7 110.07-35.58 110.39-35L110.39-35 122.77-12.95ZM151.14-35.83L173.21-35.83 173.21-31.88 156.01-31.88 156.01-19.98 169.94-19.98 169.94-16.18 156.01-16.18 156.01-3.95 173.21-3.95 173.21 0 151.14 0 151.14-35.83ZM182.69-35.83L182.69-35.83Q183.34-35.83 183.65-35.66 183.96-35.5 184.36-35L184.36-35 205.11-8Q205.04-8.65 205.01-9.26 204.99-9.88 204.99-10.45L204.99-10.45 204.99-35.83 209.24-35.83 209.24 0 206.79 0Q206.21 0 205.82-0.2 205.44-0.4 205.06-0.88L205.06-0.88 184.34-27.85Q184.39-27.23 184.41-26.63 184.44-26.03 184.44-25.53L184.44-25.53 184.44 0 180.19 0 180.19-35.83 182.69-35.83ZM249.03-17.9L249.03-17.9Q249.03-13.88 247.76-10.58 246.48-7.28 244.16-4.93 241.83-2.58 238.58-1.29 235.33 0 231.38 0L231.38 0 217.98 0 217.98-35.83 231.38-35.83Q235.33-35.83 238.58-34.54 241.83-33.25 244.16-30.89 246.48-28.53 247.76-25.23 249.03-21.93 249.03-17.9ZM244.06-17.9L244.06-17.9Q244.06-21.2 243.16-23.8 242.26-26.4 240.61-28.2 238.96-30 236.61-30.95 234.26-31.9 231.38-31.9L231.38-31.9 222.86-31.9 222.86-3.93 231.38-3.93Q234.26-3.93 236.61-4.88 238.96-5.83 240.61-7.61 242.26-9.4 243.16-12 244.06-14.6 244.06-17.9ZM255.63-35.83L277.71-35.83 277.71-31.88 260.51-31.88 260.51-19.98 274.43-19.98 274.43-16.18 260.51-16.18 260.51-3.95 277.71-3.95 277.71 0 255.63 0 255.63-35.83ZM283.43-35.83L309.63-35.83 309.63-34.02Q309.63-33.18 309.1-32.43L309.1-32.43 288.83-3.95 309.28-3.95 309.28 0 282.48 0 282.48-1.9Q282.48-2.65 282.95-3.33L282.95-3.33 303.25-31.88 283.43-31.88 283.43-35.83ZM312.28-13.1L312.28-16.88 324.63-16.88 324.63-13.1 312.28-13.1ZM360.52-35.83L360.52 0 355.65 0 355.65-16.3 336.35-16.3 336.35 0 331.47 0 331.47-35.83 336.35-35.83 336.35-19.85 355.65-19.85 355.65-35.83 360.52-35.83ZM383.2-3.85L383.2-3.85Q385.42-3.85 387.17-4.6 388.92-5.35 390.13-6.7 391.35-8.05 391.98-9.93 392.62-11.8 392.62-14.05L392.62-14.05 392.62-35.83 397.45-35.83 397.45-14.05Q397.45-10.95 396.46-8.3 395.47-5.65 393.63-3.71 391.8-1.78 389.15-0.68 386.5 0.43 383.2 0.43L383.2 0.43Q379.9 0.43 377.25-0.68 374.6-1.78 372.75-3.71 370.9-5.65 369.91-8.3 368.92-10.95 368.92-14.05L368.92-14.05 368.92-35.83 373.75-35.83 373.75-14.08Q373.75-11.83 374.38-9.95 375.02-8.08 376.23-6.73 377.45-5.38 379.21-4.61 380.97-3.85 383.2-3.85ZM421.74-3.53L421.74-3.53Q423.19-3.53 424.41-3.66 425.62-3.8 426.69-4.08 427.77-4.35 428.72-4.74 429.67-5.13 430.62-5.63L430.62-5.63 430.62-13.53 425.07-13.53Q424.59-13.53 424.31-13.8 424.02-14.08 424.02-14.48L424.02-14.48 424.02-17.23 435.02-17.23 435.02-3.48Q433.67-2.5 432.21-1.78 430.74-1.05 429.08-0.56 427.42-0.08 425.52 0.16 423.62 0.4 421.39 0.4L421.39 0.4Q417.49 0.4 414.24-0.94 410.99-2.27 408.64-4.69 406.29-7.1 404.98-10.48 403.67-13.85 403.67-17.9L403.67-17.9Q403.67-22 404.96-25.38 406.24-28.75 408.63-31.16 411.02-33.58 414.41-34.9 417.79-36.23 421.99-36.23L421.99-36.23Q424.12-36.23 425.94-35.91 427.77-35.6 429.33-35.01 430.89-34.43 432.22-33.59 433.54-32.75 434.69-31.7L434.69-31.7 433.32-29.5Q432.89-28.83 432.22-28.83L432.22-28.83Q431.82-28.83 431.34-29.1L431.34-29.1Q430.72-29.45 429.94-29.95 429.17-30.45 428.06-30.91 426.94-31.38 425.43-31.7 423.92-32.02 421.84-32.02L421.84-32.02Q418.82-32.02 416.37-31.04 413.92-30.05 412.19-28.21 410.47-26.38 409.54-23.76 408.62-21.15 408.62-17.9L408.62-17.9Q408.62-14.5 409.58-11.84 410.54-9.18 412.29-7.33 414.04-5.48 416.44-4.5 418.84-3.53 421.74-3.53ZM471.52-35.83L471.52 0 466.64 0 466.64-16.3 447.34-16.3 447.34 0 442.47 0 442.47-35.83 447.34-35.83 447.34-19.85 466.64-19.85 466.64-35.83 471.52-35.83ZM480.26-35.83L502.34-35.83 502.34-31.88 485.14-31.88 485.14-19.98 499.06-19.98 499.06-16.18 485.14-16.18 485.14-3.95 502.34-3.95 502.34 0 480.26 0 480.26-35.83ZM528.84-32.52L527.66-30.23Q527.44-29.85 527.19-29.66 526.94-29.48 526.54-29.48L526.54-29.48Q526.11-29.48 525.55-29.9 524.99-30.33 524.12-30.84 523.26-31.35 522.05-31.78 520.84-32.2 519.11-32.2L519.11-32.2Q517.49-32.2 516.24-31.76 514.99-31.33 514.15-30.58 513.31-29.83 512.89-28.81 512.46-27.8 512.46-26.63L512.46-26.63Q512.46-25.13 513.2-24.14 513.94-23.15 515.15-22.45 516.36-21.75 517.9-21.24 519.44-20.73 521.05-20.18 522.66-19.63 524.2-18.94 525.74-18.25 526.95-17.2 528.16-16.15 528.9-14.63 529.64-13.1 529.64-10.88L529.64-10.88Q529.64-8.53 528.84-6.46 528.04-4.4 526.5-2.88 524.96-1.35 522.72-0.48 520.49 0.4 517.64 0.4L517.64 0.4Q514.16 0.4 511.3-0.86 508.44-2.13 506.41-4.28L506.41-4.28 507.81-6.58Q508.01-6.85 508.3-7.04 508.59-7.23 508.94-7.23L508.94-7.23Q509.46-7.23 510.14-6.66 510.81-6.1 511.82-5.43 512.84-4.75 514.27-4.19 515.71-3.63 517.79-3.63L517.79-3.63Q519.51-3.63 520.86-4.1 522.21-4.58 523.15-5.44 524.09-6.3 524.59-7.5 525.09-8.7 525.09-10.18L525.09-10.18Q525.09-11.8 524.35-12.84 523.61-13.88 522.41-14.58 521.21-15.28 519.67-15.76 518.14-16.25 516.52-16.76 514.91-17.28 513.37-17.95 511.84-18.63 510.64-19.7 509.44-20.78 508.7-22.39 507.96-24 507.96-26.38L507.96-26.38Q507.96-28.28 508.7-30.05 509.44-31.83 510.84-33.2 512.24-34.58 514.3-35.4 516.36-36.23 519.04-36.23L519.04-36.23Q522.04-36.23 524.51-35.27 526.99-34.33 528.84-32.52L528.84-32.52ZM534.66-2.75L534.66-2.75Q534.66-3.4 534.89-3.98 535.13-4.55 535.54-4.98 535.96-5.4 536.53-5.65 537.11-5.9 537.76-5.9L537.76-5.9Q538.41-5.9 538.98-5.65 539.56-5.4 539.98-4.98 540.41-4.55 540.64-3.98 540.88-3.4 540.88-2.75L540.88-2.75Q540.88-2.08 540.64-1.51 540.41-0.95 539.98-0.53 539.56-0.1 538.98 0.14 538.41 0.38 537.76 0.38L537.76 0.38Q537.11 0.38 536.53 0.14 535.96-0.1 535.54-0.53 535.13-0.95 534.89-1.51 534.66-2.08 534.66-2.75ZM534.66-21.5L534.66-21.5Q534.66-22.15 534.89-22.73 535.13-23.3 535.54-23.73 535.96-24.15 536.53-24.4 537.11-24.65 537.76-24.65L537.76-24.65Q538.41-24.65 538.98-24.4 539.56-24.15 539.98-23.73 540.41-23.3 540.64-22.73 540.88-22.15 540.88-21.5L540.88-21.5Q540.88-20.83 540.64-20.26 540.41-19.7 539.98-19.28 539.56-18.85 538.98-18.61 538.41-18.38 537.76-18.38L537.76-18.38Q537.11-18.38 536.53-18.61 535.96-18.85 535.54-19.28 535.13-19.7 534.89-20.26 534.66-20.83 534.66-21.5ZM589.1-17.9L589.1-17.9Q589.1-13.88 587.83-10.58 586.55-7.28 584.23-4.93 581.9-2.58 578.65-1.29 575.4 0 571.45 0L571.45 0 558.05 0 558.05-35.83 571.45-35.83Q575.4-35.83 578.65-34.54 581.9-33.25 584.23-30.89 586.55-28.53 587.83-25.23 589.1-21.93 589.1-17.9ZM584.13-17.9L584.13-17.9Q584.13-21.2 583.23-23.8 582.33-26.4 580.68-28.2 579.03-30 576.68-30.95 574.33-31.9 571.45-31.9L571.45-31.9 562.93-31.9 562.93-3.93 571.45-3.93Q574.33-3.93 576.68-4.88 579.03-5.83 580.68-7.61 582.33-9.4 583.23-12 584.13-14.6 584.13-17.9ZM595.7-35.83L617.77-35.83 617.77-31.88 600.57-31.88 600.57-19.98 614.5-19.98 614.5-16.18 600.57-16.18 600.57-3.95 617.77-3.95 617.77 0 595.7 0 595.7-35.83ZM635.2 0L620.6-35.83 624.47-35.83Q625.12-35.83 625.52-35.5 625.92-35.18 626.12-34.68L626.12-34.68 636.25-9.4Q636.6-8.55 636.88-7.55 637.17-6.55 637.45-5.48L637.45-5.48Q637.67-6.55 637.93-7.55 638.2-8.55 638.55-9.4L638.55-9.4 648.62-34.68Q648.8-35.1 649.22-35.46 649.65-35.83 650.27-35.83L650.27-35.83 654.17-35.83 639.57 0 635.2 0ZM690.72-17.9L690.72-17.9Q690.72-13.88 689.44-10.51 688.17-7.15 685.84-4.73 683.52-2.3 680.26-0.96 676.99 0.38 673.04 0.38L673.04 0.38Q669.09 0.38 665.84-0.96 662.59-2.3 660.27-4.73 657.94-7.15 656.67-10.51 655.39-13.88 655.39-17.9L655.39-17.9Q655.39-21.93 656.67-25.29 657.94-28.65 660.27-31.09 662.59-33.52 665.84-34.88 669.09-36.23 673.04-36.23L673.04-36.23Q676.99-36.23 680.26-34.88 683.52-33.52 685.84-31.09 688.17-28.65 689.44-25.29 690.72-21.93 690.72-17.9ZM685.74-17.9L685.74-17.9Q685.74-21.2 684.84-23.83 683.94-26.45 682.29-28.26 680.64-30.08 678.29-31.05 675.94-32.02 673.04-32.02L673.04-32.02Q670.17-32.02 667.82-31.05 665.47-30.08 663.81-28.26 662.14-26.45 661.24-23.83 660.34-21.2 660.34-17.9L660.34-17.9Q660.34-14.6 661.24-11.99 662.14-9.38 663.81-7.56 665.47-5.75 667.82-4.79 670.17-3.83 673.04-3.83L673.04-3.83Q675.94-3.83 678.29-4.79 680.64-5.75 682.29-7.56 683.94-9.38 684.84-11.99 685.74-14.6 685.74-17.9ZM708.42-13.4L702.67-13.4 702.67 0 697.84 0 697.84-35.83 708.42-35.83Q711.82-35.83 714.33-35.04 716.84-34.25 718.49-32.8 720.14-31.35 720.95-29.3 721.77-27.25 721.77-24.73L721.77-24.73Q721.77-22.23 720.89-20.15 720.02-18.07 718.33-16.57 716.64-15.08 714.14-14.24 711.64-13.4 708.42-13.4L708.42-13.4ZM702.67-32L702.67-17.25 708.42-17.25Q710.49-17.25 712.08-17.8 713.67-18.35 714.74-19.34 715.82-20.33 716.37-21.7 716.92-23.08 716.92-24.73L716.92-24.73Q716.92-28.15 714.8-30.08 712.69-32 708.42-32L708.42-32 702.67-32ZM747.41-32.52L746.24-30.23Q746.01-29.85 745.76-29.66 745.51-29.48 745.11-29.48L745.11-29.48Q744.69-29.48 744.13-29.9 743.56-30.33 742.7-30.84 741.84-31.35 740.63-31.78 739.41-32.2 737.69-32.2L737.69-32.2Q736.06-32.2 734.81-31.76 733.56-31.33 732.73-30.58 731.89-29.83 731.46-28.81 731.04-27.8 731.04-26.63L731.04-26.63Q731.04-25.13 731.78-24.14 732.51-23.15 733.73-22.45 734.94-21.75 736.48-21.24 738.01-20.73 739.63-20.18 741.24-19.63 742.78-18.94 744.31-18.25 745.53-17.2 746.74-16.15 747.48-14.63 748.21-13.1 748.21-10.88L748.21-10.88Q748.21-8.53 747.41-6.46 746.61-4.4 745.08-2.88 743.54-1.35 741.3-0.48 739.06 0.4 736.21 0.4L736.21 0.4Q732.74 0.4 729.88-0.86 727.01-2.13 724.99-4.28L724.99-4.28 726.39-6.58Q726.59-6.85 726.88-7.04 727.16-7.23 727.51-7.23L727.51-7.23Q728.04-7.23 728.71-6.66 729.39-6.1 730.4-5.43 731.41-4.75 732.85-4.19 734.29-3.63 736.36-3.63L736.36-3.63Q738.09-3.63 739.44-4.1 740.79-4.58 741.73-5.44 742.66-6.3 743.16-7.5 743.66-8.7 743.66-10.18L743.66-10.18Q743.66-11.8 742.93-12.84 742.19-13.88 740.99-14.58 739.79-15.28 738.25-15.76 736.71-16.25 735.1-16.76 733.49-17.28 731.95-17.95 730.41-18.63 729.21-19.7 728.01-20.78 727.28-22.39 726.54-24 726.54-26.38L726.54-26.38Q726.54-28.28 727.28-30.05 728.01-31.83 729.41-33.2 730.81-34.58 732.88-35.4 734.94-36.23 737.61-36.23L737.61-36.23Q740.61-36.23 743.09-35.27 745.56-34.33 747.41-32.52L747.41-32.52ZM764.03-35.83L786.11-35.83 786.11-31.88 768.91-31.88 768.91-19.98 782.83-19.98 782.83-16.18 768.91-16.18 768.91-3.95 786.11-3.95 786.11 0 764.03 0 764.03-35.83ZM795.58-35.83L795.58-35.83Q796.23-35.83 796.54-35.66 796.86-35.5 797.26-35L797.26-35 818.01-8Q817.93-8.65 817.91-9.26 817.88-9.88 817.88-10.45L817.88-10.45 817.88-35.83 822.13-35.83 822.13 0 819.68 0Q819.11 0 818.72-0.2 818.33-0.4 817.96-0.88L817.96-0.88 797.23-27.85Q797.28-27.23 797.31-26.63 797.33-26.03 797.33-25.53L797.33-25.53 797.33 0 793.08 0 793.08-35.83 795.58-35.83ZM846.85-3.53L846.85-3.53Q848.3-3.53 849.52-3.66 850.73-3.8 851.8-4.08 852.88-4.35 853.83-4.74 854.78-5.13 855.73-5.63L855.73-5.63 855.73-13.53 850.18-13.53Q849.7-13.53 849.42-13.8 849.13-14.08 849.13-14.48L849.13-14.48 849.13-17.23 860.13-17.23 860.13-3.48Q858.78-2.5 857.32-1.78 855.85-1.05 854.19-0.56 852.53-0.08 850.63 0.16 848.73 0.4 846.5 0.4L846.5 0.4Q842.6 0.4 839.35-0.94 836.1-2.27 833.75-4.69 831.4-7.1 830.09-10.48 828.78-13.85 828.78-17.9L828.78-17.9Q828.78-22 830.07-25.38 831.35-28.75 833.74-31.16 836.13-33.58 839.52-34.9 842.9-36.23 847.1-36.23L847.1-36.23Q849.23-36.23 851.05-35.91 852.88-35.6 854.44-35.01 856-34.43 857.33-33.59 858.65-32.75 859.8-31.7L859.8-31.7 858.43-29.5Q858-28.83 857.33-28.83L857.33-28.83Q856.93-28.83 856.45-29.1L856.45-29.1Q855.83-29.45 855.05-29.95 854.28-30.45 853.17-30.91 852.05-31.38 850.54-31.7 849.03-32.02 846.95-32.02L846.95-32.02Q843.93-32.02 841.48-31.04 839.03-30.05 837.3-28.21 835.58-26.38 834.65-23.76 833.73-21.15 833.73-17.9L833.73-17.9Q833.73-14.5 834.69-11.84 835.65-9.18 837.4-7.33 839.15-5.48 841.55-4.5 843.95-3.53 846.85-3.53ZM873.33-35.83L873.33 0 868.48 0 868.48-35.83 873.33-35.83ZM885.42-35.83L885.42-35.83Q886.07-35.83 886.39-35.66 886.7-35.5 887.1-35L887.1-35 907.85-8Q907.77-8.65 907.75-9.26 907.72-9.88 907.72-10.45L907.72-10.45 907.72-35.83 911.97-35.83 911.97 0 909.52 0Q908.95 0 908.56-0.2 908.17-0.4 907.8-0.88L907.8-0.88 887.07-27.85Q887.12-27.23 887.15-26.63 887.17-26.03 887.17-25.53L887.17-25.53 887.17 0 882.92 0 882.92-35.83 885.42-35.83ZM920.72-35.83L942.8-35.83 942.8-31.88 925.6-31.88 925.6-19.98 939.52-19.98 939.52-16.18 925.6-16.18 925.6-3.95 942.8-3.95 942.8 0 920.72 0 920.72-35.83ZM949.77-35.83L971.84-35.83 971.84-31.88 954.64-31.88 954.64-19.98 968.57-19.98 968.57-16.18 954.64-16.18 954.64-3.95 971.84-3.95 971.84 0 949.77 0 949.77-35.83ZM987.82-14.95L984.14-14.95 984.14 0 979.32 0 979.32-35.83 989.44-35.83Q992.84-35.83 995.32-35.14 997.79-34.45 999.4-33.15 1001.02-31.85 1001.79-30.01 1002.57-28.18 1002.57-25.9L1002.57-25.9Q1002.57-24 1001.97-22.35 1001.37-20.7 1000.23-19.39 999.09-18.07 997.45-17.15 995.82-16.23 993.74-15.75L993.74-15.75Q994.64-15.23 995.34-14.23L995.34-14.23 1005.79 0 1001.49 0Q1000.17 0 999.54-1.03L999.54-1.03 990.24-13.83Q989.82-14.43 989.32-14.69 988.82-14.95 987.82-14.95L987.82-14.95ZM984.14-32L984.14-18.48 989.22-18.48Q991.34-18.48 992.95-18.99 994.57-19.5 995.65-20.44 996.74-21.38 997.29-22.68 997.84-23.98 997.84-25.55L997.84-25.55Q997.84-28.75 995.73-30.38 993.62-32 989.44-32L989.44-32 984.14-32Z" opacity="1" transform="matrix(1,0,0,1,0,0)" fill="#ffffff" class="wordmark-text-0" data-fill-palette-color="primary" id="text-0"></path></svg></g></svg></g></svg></g></svg></g><g><svg viewBox="0 0 47.18341852766214 47.18223633370411" height="47.18223633370411" width="47.18341852766214"><g><svg xmlns="http://www.w3.org/2000/svg" xmlns:xlink="http://www.w3.org/1999/xlink" version="1.1" x="0" y="0" viewBox="7.279893330341158 7.28 85.44214077711491 85.44" enable-background="new 0 0 100 100" xml:space="preserve" height="47.18223633370411" width="47.18341852766214" class="icon-icon-0" data-fill-palette-color="accent" id="icon-0"><path d="M91.24 67.483L74.39 58.951 90.34 50.705C90.848 50.441 90.848 50.017 90.337 49.76L72.349 40.653 91.261 30.875C92.18 30.398 92.725 29.552 92.72 28.611 92.714 27.672 92.159 26.834 91.24 26.37L54.356 7.698C53.673 7.353 52.96 7.28 52.481 7.28 52.041 7.28 51.383 7.342 50.746 7.64L8.818 27.269C7.864 27.716 7.289 28.552 7.28 29.504 7.271 30.457 7.832 31.304 8.779 31.77L28.918 41.673 9.667 50.685C9.153 50.926 9.151 51.328 9.662 51.579L26.756 59.985 8.818 68.381C7.863 68.828 7.288 69.664 7.28 70.616 7.272 71.569 7.833 72.416 8.779 72.88L48.333 92.332C48.984 92.653 49.66 92.72 50.112 92.72 50.588 92.72 51.298 92.647 51.984 92.295L91.263 71.987C92.182 71.51 92.727 70.664 92.722 69.723 92.714 68.785 92.16 67.946 91.24 67.483M52.375 11.289A1 1 0 0 1 52.481 11.28C52.542 11.28 52.587 11.288 52.563 11.274L86.872 28.642 50.215 47.6C50.205 47.602 50.167 47.61 50.112 47.61L50.098 47.631 13.353 29.562zM50.22 88.71A0.5 0.5 0 0 1 50.111 88.72L50.099 88.743 13.355 70.673 30.73 62.539 48.331 71.194C48.983 71.515 49.659 71.583 50.111 71.583 50.588 71.583 51.299 71.509 51.981 71.157L70.615 61.524 86.87 69.754z" fill="#00cc66" data-fill-palette-color="accent"></path></svg></g></svg></g></svg></g><defs></defs></svg><rect width="395.52" height="41.83380450503708" fill="none" stroke="none" visibility="hidden"></rect></g></svg></g></svg>