<svg xmlns="http://www.w3.org/2000/svg" version="1.1" xmlns:xlink="http://www.w3.org/1999/xlink" xmlns:svgjs="http://svgjs.dev/svgjs" width="2000" height="459" viewBox="0 0 2000 459"><g transform="matrix(1,0,0,1,-1.2121212121212466,-1.5317511040088334)"><svg viewBox="0 0 396 91" data-background-color="#121212" preserveAspectRatio="xMidYMid meet" height="459" width="2000" xmlns="http://www.w3.org/2000/svg" xmlns:xlink="http://www.w3.org/1999/xlink"><g id="tight-bounds" transform="matrix(1,0,0,1,0.2400000000000091,0.30368050210196884)"><svg viewBox="0 0 395.52 90.39263899579608" height="90.39263899579608" width="395.52"><g><svg viewBox="0 0 395.52 90.39263899579608" height="90.39263899579608" width="395.52"><g><svg viewBox="0 0 395.52 90.39263899579608" height="90.39263899579608" width="395.52"><g id="textblocktransform"><svg viewBox="0 0 395.52 90.39263899579608" height="90.39263899579608" width="395.52" id="textblock"><g><svg viewBox="0 0 395.52 90.39263899579608" height="90.39263899579608" width="395.52"><g transform="matrix(1,0,0,1,0,0)"><svg width="395.52" viewBox="-2.7800000000000002 -41.5 198.9 46.23" height="90.39263899579608" data-palette-color="#ffffff"><path d="M1.22-35.55L9.96 0.24 14.5 0.24 21.36-26.12Q21.58-26.95 21.74-27.7 21.9-28.44 22.02-29.25L22.02-29.25 22.22-29.25Q22.34-28.44 22.5-27.7 22.66-26.95 22.88-26.12L22.88-26.12 29.74 0.24 34.28 0.24 43.02-35.55 38.38-35.55 32.57-9.23Q32.37-8.4 32.28-7.9 32.18-7.4 32.08-6.59L32.08-6.59 31.86-6.59Q31.76-7.4 31.68-7.9 31.59-8.4 31.37-9.23L31.37-9.23 24.51-35.55 19.78-35.55 13.16-9.23Q12.94-8.4 12.85-7.9 12.77-7.4 12.67-6.59L12.67-6.59 12.43-6.59Q12.33-7.4 12.24-7.9 12.16-8.4 11.96-9.23L11.96-9.23 5.91-35.55 1.22-35.55ZM48.07-25.68L48.07 0 52.61 0 52.61-25.68 48.07-25.68ZM47.51-33.45L47.51-33.45Q47.51-32.3 48.24-31.52 48.97-30.74 50.34-30.74L50.34-30.74Q51.71-30.74 52.44-31.52 53.17-32.3 53.17-33.45L53.17-33.45Q53.17-34.59 52.44-35.38 51.71-36.16 50.34-36.16L50.34-36.16Q48.97-36.16 48.24-35.38 47.51-34.59 47.51-33.45ZM56.44-25.68L56.44-22.22 71.09-22.22 71.09-25.68 56.44-25.68ZM61.03-23.58L61.03-6.35Q61.03-2.69 62.7-0.98 64.37 0.73 67.18 0.73L67.18 0.73Q68.4 0.73 69.43 0.51 70.45 0.29 71.09 0L71.09 0 71.09-3.71Q70.41-3.47 69.75-3.32 69.09-3.17 68.4-3.17L68.4-3.17Q66.94-3.17 66.25-3.91 65.57-4.64 65.57-6.35L65.57-6.35 65.57-32.03 61.03-32.03 61.03-24.32 61.03-23.58ZM75.92-37.5L75.92 0 80.46 0 80.46-18.16Q81.39-20.02 83.05-21.19 84.71-22.36 86.88-22.36L86.88-22.36Q89.42-22.36 90.8-21.03 92.18-19.7 92.18-16.63L92.18-16.63 92.18 0 96.72 0 96.72-16.58Q96.72-21.75 94.41-23.96 92.11-26.17 88.52-26.17L88.52-26.17Q86.03-26.17 83.93-25.17 81.83-24.17 80.46-22.51L80.46-22.51 80.46-37.5 75.92-37.5ZM112.9-10.01L112.9-9.77Q112.9-4.88 116.02-2.08 119.13 0.73 124.13 0.73L124.13 0.73Q129.14 0.73 132.25-2.26 135.36-5.25 135.36-10.38L135.36-10.38 135.36-35.55 130.68-35.55 130.68-10.38Q130.68-6.96 128.93-5.11 127.18-3.27 124.13-3.27L124.13-3.27Q121.08-3.27 119.34-4.93 117.59-6.59 117.59-9.77L117.59-9.77 117.59-10.01 112.9-10.01ZM141.22-13.23L141.22-12.45Q141.22-6.64 144.52-2.95 147.81 0.73 153.33 0.73L153.33 0.73Q158.85 0.73 162.14-2.95 165.44-6.64 165.44-12.45L165.44-12.45 165.44-13.23Q165.44-19.04 162.14-22.73 158.85-26.42 153.33-26.42L153.33-26.42Q147.81-26.42 144.52-22.73 141.22-19.04 141.22-13.23L141.22-13.23ZM145.86-12.45L145.86-13.23Q145.86-17.21 147.74-19.96 149.62-22.71 153.33-22.71L153.33-22.71Q157.04-22.71 158.92-19.96 160.8-17.21 160.8-13.23L160.8-13.23 160.8-12.45Q160.8-8.47 158.92-5.73 157.04-2.98 153.33-2.98L153.33-2.98Q149.62-2.98 147.74-5.73 145.86-8.47 145.86-12.45L145.86-12.45ZM169.59-13.23L169.59-12.45Q169.59-6.64 172.77-2.95 175.96 0.73 181.94 0.73L181.94 0.73Q185.6 0.73 188.15-0.85 190.71-2.44 191.93-4.27L191.93-4.27 189-6.59Q187.9-5.13 186.14-4.05 184.38-2.98 181.94-2.98L181.94-2.98Q177.99-2.98 176.11-5.73 174.23-8.47 174.23-12.45L174.23-12.45 174.23-13.23Q174.23-17.21 176.01-19.96 177.79-22.71 181.4-22.71L181.4-22.71Q184.38-22.71 185.97-20.75 187.56-18.8 187.56-16.02L187.56-16.02 187.56-15.43 172.37-15.43 172.37-11.82 192.12-11.82 192.12-13.67Q192.12-19.53 189.29-22.97 186.46-26.42 181.21-26.42L181.21-26.42Q175.96-26.42 172.77-22.73 169.59-19.04 169.59-13.23L169.59-13.23Z" opacity="1" transform="matrix(1,0,0,1,0,0)" fill="#ffffff" class="wordmark-text-0" data-fill-palette-color="primary" id="text-0"></path></svg></g></svg></g></svg></g></svg></g></svg></g><defs></defs></svg><rect width="395.52" height="90.39263899579608" fill="none" stroke="none" visibility="hidden"></rect></g></svg></g></svg>